<?xml version="1.0" encoding="UTF-8"?>
<svg xmlns="http://www.w3.org/2000/svg" version="1.1" width="280" height="187">
<path style="fill:#000" d="m 34.53,174.6 c -11.21,-5.32 -18.94,-11.83 -22.77,-19.18 -1.5,-2.88 -2.45,-8.77 -2.85,-17.75 -.56,-12.43 -.37,-13.8 2.56,-18.32 4.41,-6.8 8.29,-6.07 9.37,1.75 .35,2.52 1.11,3.2 3.13,2.8 7.51,-1.5 8.0,-1.16 7.92,5.44 -.07,5.41 .22,6.09 2.13,5.06 2.41,-1.29 5.28,.68 5.28,3.63 .0,.95 1.21,1.73 2.69,1.73 1.57,.0 3.72,1.7 5.18,4.1 l 2.49,4.1 4.83,-4.24 c 5.66,-4.97 8.47,-4.47 9.06,1.61 .4,4.17 .78,4.46 7.65,5.75 3.97,.75 7.45,2.04 7.73,2.86 1.1,3.29 -25.81,25.84 -30.76,25.78 -1.57,-.02 -7.7,-2.33 -13.62,-5.14 z m 21.93,-6.01 c 3.62,-3.22 8.44,-6.95 10.71,-8.29 2.27,-1.34 4.12,-2.84 4.12,-3.33 .0,-.49 -2.7,-1.3 -6.0,-1.79 -4.66,-.7 -6.0,-1.46 -6.0,-3.41 .0,-3.97 -2.59,-4.53 -6.03,-1.3 -3.7,3.47 -6.68,2.81 -8.86,-1.99 -1.11,-2.43 -2.57,-3.37 -5.26,-3.37 -2.05,.0 -4.2,-.84 -4.79,-1.87 -.59,-1.03 -2.57,-2.08 -4.4,-2.33 -3.02,-.42 -3.31,-1.0 -3.07,-6.26 .25,-5.48 .09,-5.75 -2.9,-5.0 -3.14,.79 -6.46,-1.29 -7.73,-4.85 -1.39,-3.88 -2.44,.69 -2.51,10.86 -.12,18.6 5.93,27.13 25.54,36.01 3.3,1.49 7.03,2.73 8.29,2.75 1.26,.02 5.25,-2.6 8.88,-5.82 z m 156.51,4.43 -2.59,-4.09 -2.24,3.42 c -2.35,3.59 -6.18,4.64 -6.18,1.7 .0,-.94 1.78,-3.79 3.95,-6.33 3.47,-4.06 3.95,-5.66 4.01,-13.28 .04,-4.77 .68,-12.49 1.44,-17.17 1.16,-7.14 1.05,-8.86 -.68,-10.77 -1.13,-1.25 -2.06,-2.96 -2.06,-3.8 .0,-.84 -1.78,-2.45 -3.95,-3.57 -2.17,-1.12 -5.5,-3.99 -7.4,-6.37 -3.91,-4.91 -9.69,-20.04 -11.06,-28.99 -.86,-5.6 -1.38,-6.22 -7.78,-9.33 -9.09,-4.42 -11.11,-6.28 -14.07,-12.95 -2.13,-4.8 -3.21,-5.73 -7.45,-6.43 -7.01,-1.16 -11.75,-3.14 -14.31,-5.97 -3.95,-4.36 -2.0,-6.96 7.25,-9.69 7.08,-2.09 9.84,-3.82 16.0,-10.07 5.71,-5.79 9.18,-8.1 14.89,-9.89 15.68,-4.91 21.51,-2.78 29.82,10.9 5.31,8.74 9.38,11.07 23.23,13.3 9.77,1.57 13.73,4.05 19.19,12.0 2.32,3.37 6.48,8.59 9.25,11.6 6.67,7.25 10.85,16.75 9.69,22.04 -1.5,6.83 -10.1,16.88 -21.63,25.29 -6.05,4.41 -11.0,8.31 -11.0,8.66 .0,.35 1.01,2.86 2.23,5.59 1.57,3.49 2.29,9.06 2.43,18.76 l .19,13.8 4.91,6.05 c 5.24,6.46 5.71,7.69 3.49,9.07 -.78,.48 -3.43,-1.43 -5.88,-4.25 l -4.47,-5.13 -2.86,3.03 c -4.66,4.93 -7.61,.98 -3.04,-4.06 3.34,-3.69 3.34,-28.75 .0,-35.88 -2.22,-4.74 -2.45,-4.86 -6.65,-3.52 -2.39,.76 -5.98,1.69 -7.97,2.06 -4.54,.84 -5.12,2.68 -6.33,20.26 -.84,12.18 -.63,14.92 1.49,19.96 2.96,7.0 3.04,8.16 .6,8.16 -1.03,.0 -3.03,-1.84 -4.46,-4.09 z m 14.89,-50.83 c 3.26,-.87 9.12,-3.87 13.02,-6.67 3.9,-2.79 9.29,-6.56 11.98,-8.36 2.69,-1.81 7.11,-6.62 9.81,-10.69 7.23,-10.89 6.73,-12.58 -10.04,-33.89 -8.43,-10.72 -11.45,-12.54 -25.67,-15.5 -11.92,-2.48 -16.7,-5.8 -20.75,-14.41 -3.33,-7.09 -7.84,-10.22 -14.7,-10.22 -7.94,.0 -14.73,3.44 -23.54,11.93 -5.89,5.67 -9.68,8.15 -14.35,9.4 -7.9,2.11 -6.63,4.68 2.98,6.0 7.06,.97 9.14,2.66 12.9,10.47 2.43,5.04 3.78,6.09 14.47,11.22 4.43,2.12 5.52,3.45 6.42,7.77 4.17,20.1 11.0,33.58 18.16,35.85 1.44,.46 2.99,2.0 3.45,3.43 .94,2.95 2.12,3.26 4.26,1.11 1.89,-1.89 4.79,-.17 3.85,2.29 -.87,2.27 .16,2.31 7.76,.28 z M 174.29,41.48 c -2.88,-1.03 -1.83,-3.71 2.45,-6.23 2.92,-1.73 4.53,-2.02 5.54,-1.01 2.46,2.46 -4.29,8.58 -8.0,7.24 z m -62.33,130.68 c -1.47,-.35 -7.01,-2.73 -12.31,-5.29 -7.82,-3.77 -10.91,-6.25 -16.35,-13.09 -3.69,-4.64 -7.62,-10.61 -8.73,-13.27 -3.0,-7.18 -6.37,-32.85 -4.55,-34.64 1.04,-1.02 1.92,-.86 3.09,.57 .9,1.1 4.08,4.3 7.07,7.1 l 5.43,5.1 2.95,-4.77 c 3.54,-5.73 4.76,-5.87 9.76,-1.1 l 3.84,3.67 2.44,-3.0 c 3.18,-3.91 5.05,-3.78 9.71,.67 l 3.84,3.67 2.44,-3.0 c 3.16,-3.88 4.51,-3.78 8.69,.67 l 3.45,3.67 2.71,-3.67 c 3.33,-4.5 5.27,-4.59 10.08,-.45 l 3.74,3.22 3.52,-4.22 3.52,-4.22 2.95,2.67 2.95,2.67 3.77,-4.51 c 2.63,-3.15 4.45,-4.25 6.04,-3.64 1.97,.76 2.18,2.29 1.56,11.34 -.89,13.04 -4.05,20.4 -13.25,30.87 -7.42,8.45 -22.25,20.26 -28.33,22.58 -3.59,1.37 -15.09,1.6 -20.07,.41 z m 21.61,-6.61 c 12.77,-8.09 28.45,-23.76 31.8,-31.78 .92,-2.2 2.11,-6.91 2.64,-10.48 l .97,-6.48 -3.54,2.32 c -3.28,2.15 -3.72,2.16 -5.94,.14 -2.94,-2.66 -4.19,-2.76 -4.19,-.32 .0,1.02 -1.05,3.15 -2.34,4.74 l -2.34,2.89 -3.91,-4.08 c -4.54,-4.74 -7.26,-5.12 -10.41,-1.44 -2.43,2.83 -5.17,2.49 -9.53,-1.17 -1.93,-1.62 -2.67,-1.73 -3.12,-.44 -.33,.93 -1.52,2.62 -2.65,3.75 -1.86,1.86 -2.47,1.66 -6.28,-2.02 -4.93,-4.77 -6.8,-5.08 -8.76,-1.42 -1.9,3.55 -4.22,3.36 -8.0,-.67 -3.95,-4.21 -4.26,-4.18 -7.12,.67 -3.03,5.12 -5.65,5.05 -11.32,-.33 l -4.57,-4.33 .85,7.64 c 2.39,21.53 14.21,35.83 36.79,44.51 5.87,2.26 16.03,1.43 20.98,-1.71 z" />
<path d="m 235.66,123.48 0.71,0.87 -0.23,0.19 -0.71,-0.86 q -0.16,-0.20 -0.33,-0.24 -0.16,-0.03 -0.32,0.09 -0.19,0.15 -0.20,0.37 -0.01,0.21 0.16,0.42 l 0.67,0.81 -0.23,0.19 -1.64,-2.01 0.23,-0.19 0.64,0.79 q -0.02,-0.20 0.04,-0.35 0.06,-0.16 0.21,-0.28 0.24,-0.20 0.50,-0.15 0.25,0.04 0.50,0.34 z" />
<path d="m 237.45,122.16 0.09,0.11 -1.09,0.89 q 0.21,0.23 0.45,0.25 0.23,0.01 0.47,-0.17 0.13,-0.11 0.23,-0.25 0.10,-0.13 0.17,-0.31 l 0.18,0.22 q -0.08,0.15 -0.19,0.29 -0.11,0.13 -0.24,0.25 -0.34,0.28 -0.71,0.24 -0.36,-0.03 -0.64,-0.38 -0.29,-0.35 -0.27,-0.72 0.02,-0.36 0.34,-0.63 0.29,-0.23 0.61,-0.18 0.32,0.04 0.58,0.37 z m -0.29,0.12 q -0.16,-0.19 -0.36,-0.22 -0.20,-0.02 -0.37,0.11 -0.19,0.16 -0.22,0.37 -0.02,0.21 0.12,0.42 z" />
<path d="m 236.83,120.61 0.23,-0.19 1.64,2.01 -0.23,0.19 z" />
<path d="m 238.99,119.86 0.18,0.22 q -0.14,0.03 -0.27,0.09 -0.12,0.06 -0.24,0.15 -0.17,0.14 -0.22,0.27 -0.04,0.12 0.04,0.23 0.06,0.08 0.17,0.07 0.10,-0 0.32,-0.11 l 0.09,-0.04 q 0.29,-0.15 0.48,-0.14 0.18,0.01 0.33,0.18 0.16,0.20 0.10,0.45 -0.06,0.24 -0.34,0.47 -0.11,0.09 -0.26,0.17 -0.14,0.08 -0.32,0.15 l -0.20,-0.24 q 0.18,-0.03 0.34,-0.10 0.15,-0.07 0.28,-0.17 0.16,-0.13 0.21,-0.26 0.04,-0.13 -0.04,-0.23 -0.07,-0.09 -0.18,-0.09 -0.10,10e-4 -0.36,0.13 l -0.09,0.04 q -0.25,0.13 -0.43,0.11 -0.17,-0.01 -0.31,-0.18 -0.16,-0.20 -0.11,-0.43 0.05,-0.23 0.32,-0.44 0.13,-0.10 0.26,-0.18 0.13,-0.07 0.26,-0.11 z" />
<path d="m 241.20,119.09 0.09,0.11 -1.09,0.89 q 0.21,0.23 0.45,0.25 0.23,0.01 0.47,-0.17 0.13,-0.11 0.23,-0.25 0.10,-0.13 0.17,-0.31 l 0.18,0.22 q -0.08,0.15 -0.19,0.29 -0.11,0.13 -0.24,0.25 -0.34,0.28 -0.71,0.24 -0.36,-0.03 -0.64,-0.38 -0.29,-0.35 -0.27,-0.72 0.02,-0.36 0.34,-0.63 0.29,-0.23 0.61,-0.18 0.32,0.04 0.58,0.37 z m -0.29,0.12 q -0.16,-0.19 -0.36,-0.22 -0.20,-0.02 -0.37,0.11 -0.19,0.16 -0.22,0.37 -0.02,0.21 0.12,0.42 z" />
<path d="m 242.14,117.31 0.18,0.22 q -0.14,0.02 -0.27,0.08 -0.12,0.05 -0.22,0.13 -0.23,0.18 -0.23,0.44 -0,0.25 0.20,0.51 0.21,0.26 0.46,0.30 0.24,0.04 0.47,-0.14 0.10,-0.08 0.18,-0.19 0.07,-0.11 0.13,-0.25 l 0.18,0.22 q -0.06,0.12 -0.14,0.23 -0.08,0.11 -0.20,0.20 -0.32,0.26 -0.68,0.22 -0.36,-0.04 -0.64,-0.39 -0.29,-0.35 -0.26,-0.71 0.02,-0.36 0.36,-0.64 0.11,-0.09 0.23,-0.15 0.12,-0.06 0.25,-0.09 z" />
<path d="m 242.40,116.31 0.33,0.41 0.49,-0.40 0.15,0.18 -0.49,0.40 0.64,0.78 q 0.14,0.17 0.23,0.18 0.09,0.01 0.23,-0.11 l 0.24,-0.20 0.16,0.19 -0.24,0.20 q -0.27,0.22 -0.46,0.20 -0.18,-0.01 -0.41,-0.28 l -0.64,-0.78 -0.17,0.14 -0.15,-0.18 0.17,-0.14 -0.33,-0.41 z" />
<path d="m 243.82,114.90 0.16,0.19 -0.22,0.18 q -0.12,0.10 -0.13,0.19 -0,0.09 0.10,0.22 l 0.10,0.12 0.39,-0.32 0.15,0.18 -0.39,0.32 1.03,1.26 -0.23,0.19 -1.03,-1.26 -0.22,0.18 -0.15,-0.18 0.22,-0.18 -0.08,-0.10 q -0.19,-0.24 -0.17,-0.44 0.02,-0.20 0.26,-0.40 z" />
<path d="m 246.97,116.09 0.15,0.18 -0.08,0.06 q -0.32,0.26 -0.51,0.25 -0.18,-0 -0.42,-0.29 l -0.25,-0.30 q -0.16,-0.19 -0.29,-0.21 -0.13,-0.01 -0.31,0.13 l -0.07,0.06 -0.15,-0.18 0.07,-0.06 q 0.18,-0.15 0.19,-0.28 0,-0.13 -0.14,-0.32 l -0.25,-0.31 q -0.23,-0.28 -0.20,-0.46 0.03,-0.18 0.35,-0.44 l 0.08,-0.06 0.15,0.18 -0.08,0.07 q -0.18,0.14 -0.19,0.25 -0,0.10 0.14,0.28 l 0.26,0.32 q 0.16,0.20 0.18,0.34 0.01,0.13 -0.09,0.28 0.17,-0.08 0.30,-0.03 0.13,0.04 0.29,0.24 l 0.26,0.32 q 0.14,0.18 0.25,0.19 0.10,0.01 0.28,-0.13 z M 247.70,113.84 q -0.21,-0.25 -0.43,-0.31 -0.22,-0.05 -0.41,0.10 -0.19,0.15 -0.18,0.38 0.01,0.22 0.22,0.48 0.21,0.25 0.43,0.31 0.22,0.05 0.41,-0.10 0.19,-0.15 0.18,-0.38 -0,-0.23 -0.22,-0.48 z m 0.69,0.36 q 0.30,0.37 0.28,0.68 -0.01,0.31 -0.35,0.59 -0.12,0.10 -0.25,0.17 -0.12,0.07 -0.26,0.12 l -0.18,-0.23 q 0.15,-0.02 0.27,-0.08 0.12,-0.05 0.23,-0.14 0.23,-0.19 0.25,-0.41 0.01,-0.21 -0.18,-0.46 l -0.09,-0.11 q 0.03,0.18 -0.03,0.34 -0.06,0.15 -0.22,0.28 -0.26,0.21 -0.59,0.14 -0.32,-0.06 -0.60,-0.40 -0.27,-0.33 -0.27,-0.67 -0,-0.33 0.26,-0.55 0.16,-0.13 0.32,-0.16 0.16,-0.03 0.34,0.03 l -0.18,-0.22 0.23,-0.19 z M 247.85,112.54 m 0.23,-0.19 1.20,1.47 q 0.22,0.27 0.22,0.48 -0,0.21 -0.23,0.40 l -0.09,0.07 -0.16,-0.20 0.06,-0.05 q 0.13,-0.11 0.13,-0.21 -0,-0.10 -0.16,-0.30 z m -0.46,-0.56 0.23,-0.19 0.24,0.30 -0.23,0.19 z M 250.37,111.58 m 0.09,0.11 -1.09,0.89 q 0.21,0.23 0.45,0.25 0.23,0.01 0.47,-0.17 0.13,-0.11 0.23,-0.25 0.10,-0.13 0.17,-0.31 l 0.18,0.22 q -0.08,0.15 -0.19,0.29 -0.11,0.13 -0.24,0.25 -0.34,0.28 -0.71,0.24 -0.36,-0.03 -0.64,-0.38 -0.29,-0.35 -0.27,-0.72 0.02,-0.36 0.34,-0.63 0.29,-0.23 0.61,-0.18 0.32,0.04 0.58,0.37 z m -0.29,0.12 q -0.16,-0.19 -0.36,-0.22 -0.20,-0.02 -0.37,0.11 -0.19,0.16 -0.22,0.37 -0.02,0.21 0.12,0.42 z M 251.58,109.95 q -0.04,-0.23 0.01,-0.41 0.06,-0.17 0.23,-0.31 0.22,-0.18 0.48,-0.12 0.25,0.05 0.49,0.34 l 0.71,0.87 -0.23,0.19 -0.71,-0.86 q -0.17,-0.20 -0.32,-0.24 -0.15,-0.04 -0.30,0.08 -0.18,0.15 -0.19,0.36 -0,0.21 0.16,0.42 l 0.67,0.81 -0.23,0.19 -0.71,-0.86 q -0.17,-0.20 -0.32,-0.24 -0.15,-0.04 -0.31,0.08 -0.18,0.14 -0.18,0.36 -0,0.21 0.16,0.42 l 0.67,0.81 -0.23,0.19 -1.18,-1.45 0.23,-0.19 0.18,0.22 q -0.02,-0.20 0.03,-0.35 0.06,-0.15 0.21,-0.28 0.15,-0.12 0.33,-0.13 0.17,-0.01 0.35,0.09 z M 252.70,107.88 m 0.33,0.41 0.49,-0.40 0.15,0.18 -0.49,0.40 0.64,0.78 q 0.14,0.17 0.23,0.18 0.09,0.01 0.23,-0.11 l 0.24,-0.20 0.16,0.19 -0.24,0.20 q -0.27,0.22 -0.46,0.20 -0.18,-0.01 -0.41,-0.28 l -0.64,-0.78 -0.17,0.14 -0.15,-0.18 0.17,-0.14 -0.33,-0.41 z M 256.49,108.62 m 0.15,0.18 -1.37,1.12 -0.15,-0.18 z M 255.21,105.56 m 0.66,-0.54 1.64,2.01 -0.23,0.19 -1.48,-1.81 -0.42,0.34 q -0.12,0.10 -0.13,0.19 -0,0.09 0.10,0.22 l 0.10,0.12 0.39,-0.32 0.15,0.18 -0.39,0.32 1.03,1.26 -0.23,0.19 -1.03,-1.26 -0.22,0.18 -0.15,-0.18 0.22,-0.18 -0.08,-0.10 q -0.19,-0.24 -0.17,-0.44 0.02,-0.20 0.26,-0.40 z M 258.09,105.36 q -0.28,0.23 -0.34,0.39 -0.05,0.15 0.07,0.31 0.10,0.12 0.24,0.13 0.14,0 0.28,-0.11 0.19,-0.16 0.20,-0.39 0,-0.23 -0.18,-0.47 l -0.04,-0.05 z m 0.39,-0.48 0.67,0.82 -0.23,0.19 -0.18,-0.22 q 0.02,0.19 -0.04,0.36 -0.07,0.16 -0.24,0.30 -0.22,0.18 -0.45,0.16 -0.23,-0.01 -0.40,-0.22 -0.20,-0.24 -0.13,-0.50 0.06,-0.25 0.38,-0.52 l 0.33,-0.27 -0.01,-0.02 q -0.13,-0.16 -0.31,-0.16 -0.18,-0 -0.37,0.15 -0.12,0.10 -0.21,0.22 -0.09,0.12 -0.15,0.27 l -0.18,-0.22 q 0.08,-0.15 0.19,-0.28 0.10,-0.12 0.21,-0.22 0.31,-0.25 0.60,-0.22 0.28,0.03 0.56,0.36 z M 260,103.78 q -0.21,-0.25 -0.43,-0.31 -0.22,-0.05 -0.41,0.10 -0.19,0.15 -0.18,0.38 0.01,0.22 0.22,0.48 0.21,0.25 0.43,0.31 0.22,0.05 0.41,-0.10 0.19,-0.15 0.18,-0.38 -0,-0.23 -0.22,-0.48 z m 0.69,0.36 q 0.30,0.37 0.28,0.68 -0.01,0.31 -0.35,0.59 -0.12,0.10 -0.25,0.17 -0.12,0.07 -0.26,0.12 l -0.18,-0.23 q 0.15,-0.02 0.27,-0.08 0.12,-0.05 0.23,-0.14 0.23,-0.19 0.25,-0.41 0.01,-0.21 -0.18,-0.46 l -0.09,-0.11 q 0.03,0.18 -0.03,0.34 -0.06,0.15 -0.22,0.28 -0.26,0.21 -0.59,0.14 -0.32,-0.06 -0.60,-0.40 -0.27,-0.33 -0.27,-0.67 -0,-0.33 0.26,-0.55 0.16,-0.13 0.32,-0.16 0.16,-0.03 0.34,0.03 l -0.18,-0.22 0.23,-0.19 z M 261.68,102.40 q -0.21,-0.25 -0.43,-0.31 -0.22,-0.05 -0.41,0.10 -0.19,0.15 -0.18,0.38 0.01,0.22 0.22,0.48 0.21,0.25 0.43,0.31 0.22,0.05 0.41,-0.10 0.19,-0.15 0.18,-0.38 -0,-0.23 -0.22,-0.48 z m 0.69,0.36 q 0.30,0.37 0.28,0.68 -0.01,0.31 -0.35,0.59 -0.12,0.10 -0.25,0.17 -0.12,0.07 -0.26,0.12 l -0.18,-0.23 q 0.15,-0.02 0.27,-0.08 0.12,-0.05 0.23,-0.14 0.23,-0.19 0.25,-0.41 0.01,-0.21 -0.18,-0.46 l -0.09,-0.11 q 0.03,0.18 -0.03,0.34 -0.06,0.15 -0.22,0.28 -0.26,0.21 -0.59,0.14 -0.32,-0.06 -0.60,-0.40 -0.27,-0.33 -0.27,-0.67 -0,-0.33 0.26,-0.55 0.16,-0.13 0.32,-0.16 0.16,-0.03 0.34,0.03 l -0.18,-0.22 0.23,-0.19 z M 263.30,102.72 m 0.09,-0.07 q 0.18,-0.14 0.19,-0.24 0.01,-0.10 -0.14,-0.28 l -0.26,-0.32 q -0.16,-0.20 -0.18,-0.34 -0.01,-0.13 0.09,-0.29 -0.17,0.08 -0.30,0.04 -0.13,-0.04 -0.30,-0.24 l -0.26,-0.32 q -0.15,-0.18 -0.25,-0.19 -0.10,-0.01 -0.28,0.13 l -0.09,0.07 -0.15,-0.18 0.08,-0.06 q 0.32,-0.26 0.50,-0.25 0.18,0 0.42,0.29 l 0.25,0.31 q 0.15,0.19 0.28,0.21 0.13,0.01 0.31,-0.13 l 0.08,-0.06 0.15,0.18 -0.08,0.06 q -0.18,0.15 -0.19,0.28 -0,0.13 0.15,0.32 l 0.25,0.30 q 0.23,0.28 0.20,0.47 -0.02,0.18 -0.35,0.44 l -0.08,0.06 z" />
</svg>
