<?xml version="1.0" encoding="UTF-8"?>
<!-- Generator: visioncortex VTracer 0.6.4 -->
<svg version="1.1" xmlns="http://www.w3.org/2000/svg" width="128" height="128">
<path d="M0,0 L96,0 L96,1 L101,1 L101,2 L103,2 L103,3 L105,3 L105,4 L106,4 L106,5 L107,5 L107,6 L108,6 L108,7 L109,7 L109,9 L110,9 L110,11 L111,11 L111,16 L112,16 L112,112 L111,112 L111,117 L110,117 L110,119 L109,119 L109,121 L108,121 L108,122 L107,122 L107,123 L106,123 L106,124 L105,124 L105,125 L103,125 L103,126 L101,126 L101,127 L96,127 L96,128 L0,128 L0,127 L-5,127 L-5,126 L-7,126 L-7,125 L-9,125 L-9,124 L-10,124 L-10,123 L-11,123 L-11,122 L-12,122 L-12,121 L-13,121 L-13,119 L-14,119 L-14,117 L-15,117 L-15,112 L-16,112 L-16,16 L-15,16 L-15,11 L-14,11 L-14,9 L-13,9 L-13,7 L-12,7 L-12,6 L-11,6 L-11,5 L-10,5 L-10,4 L-9,4 L-9,3 L-7,3 L-7,2 L-5,2 L-5,1 L0,1 Z " fill="#353C51" transform="translate(16,0)"/>
<path d="M0,0 L3,0 L3,2 L4,2 L4,4 L5,4 L5,6 L6,6 L6,8 L7,8 L7,9 L17,9 L17,8 L18,8 L18,6 L19,6 L19,4 L20,4 L20,2 L21,2 L21,0 L24,0 L24,1 L26,1 L26,2 L29,2 L29,3 L32,3 L32,4 L34,4 L34,15 L35,15 L35,16 L36,16 L36,17 L38,17 L38,18 L39,18 L39,19 L40,19 L40,20 L41,20 L41,21 L43,21 L43,20 L45,20 L45,19 L46,19 L46,18 L48,18 L48,17 L51,17 L51,18 L52,18 L52,19 L53,19 L53,20 L54,20 L54,21 L55,21 L55,22 L56,22 L56,24 L57,24 L57,25 L58,25 L58,27 L59,27 L59,28 L58,28 L58,29 L57,29 L57,31 L56,31 L56,32 L55,32 L55,33 L54,33 L54,35 L53,35 L53,71 L52,71 L52,74 L51,74 L51,75 L50,75 L50,77 L49,77 L49,78 L48,78 L48,79 L47,79 L47,80 L45,80 L45,81 L44,81 L44,82 L42,82 L42,83 L39,83 L39,84 L36,84 L36,85 L33,85 L33,86 L29,86 L29,87 L26,87 L26,88 L1,88 L1,87 L-5,87 L-5,86 L-9,86 L-9,85 L-13,85 L-13,84 L-16,84 L-16,83 L-18,83 L-18,82 L-20,82 L-20,81 L-21,81 L-21,80 L-23,80 L-23,79 L-24,79 L-24,78 L-25,78 L-25,77 L-26,77 L-26,75 L-27,75 L-27,74 L-28,74 L-28,71 L-29,71 L-29,35 L-30,35 L-30,33 L-31,33 L-31,32 L-32,32 L-32,31 L-33,31 L-33,29 L-34,29 L-34,28 L-35,28 L-35,27 L-34,27 L-34,25 L-33,25 L-33,24 L-32,24 L-32,22 L-31,22 L-31,21 L-30,21 L-30,20 L-29,20 L-29,19 L-28,19 L-28,18 L-27,18 L-27,17 L-24,17 L-24,18 L-22,18 L-22,19 L-21,19 L-21,20 L-19,20 L-19,21 L-17,21 L-17,20 L-16,20 L-16,19 L-15,19 L-15,18 L-14,18 L-14,17 L-12,17 L-12,16 L-11,16 L-11,15 L-10,15 L-10,4 L-8,4 L-8,3 L-6,3 L-6,2 L-3,2 L-3,1 L0,1 Z " fill="#468BBE" transform="translate(52,20)"/>
<path d="M0,0 L96,0 L96,1 L101,1 L101,2 L103,2 L103,3 L105,3 L105,4 L106,4 L106,5 L107,5 L107,6 L108,6 L108,7 L109,7 L109,9 L110,9 L110,11 L111,11 L111,16 L112,16 L112,112 L111,112 L111,117 L110,117 L110,119 L109,119 L109,121 L108,121 L108,122 L107,122 L107,123 L106,123 L106,124 L105,124 L105,125 L103,125 L103,126 L101,126 L101,127 L96,127 L96,128 L0,128 L0,127 L-5,127 L-5,126 L-7,126 L-7,125 L-9,125 L-9,124 L-10,124 L-10,123 L-11,123 L-11,122 L-12,122 L-12,121 L-13,121 L-13,119 L-14,119 L-14,117 L-15,117 L-15,112 L-16,112 L-16,16 L-15,16 L-15,11 L-14,11 L-14,9 L-13,9 L-13,7 L-12,7 L-12,6 L-11,6 L-11,5 L-10,5 L-10,4 L-9,4 L-9,3 L-7,3 L-7,2 L-5,2 L-5,1 L0,1 Z M-4,4 L-4,5 L-6,5 L-6,6 L-7,6 L-7,7 L-8,7 L-8,8 L-9,8 L-9,9 L-10,9 L-10,10 L-11,10 L-11,12 L-12,12 L-12,115 L-11,115 L-11,118 L-10,118 L-10,119 L-9,119 L-9,120 L-8,120 L-8,121 L-7,121 L-7,122 L-6,122 L-6,123 L-4,123 L-4,124 L99,124 L99,123 L102,123 L102,122 L103,122 L103,121 L104,121 L104,120 L105,120 L105,119 L106,119 L106,118 L107,118 L107,115 L108,115 L108,12 L107,12 L107,10 L106,10 L106,9 L105,9 L105,8 L104,8 L104,7 L103,7 L103,6 L102,6 L102,5 L99,5 L99,4 Z " fill="#212532" transform="translate(16,0)"/>
<path d="M0,0 L7,0 L7,1 L14,1 L14,9 L24,9 L24,10 L33,10 L33,9 L34,9 L34,3 L48,3 L48,9 L49,9 L49,10 L59,10 L59,9 L68,9 L68,1 L73,1 L73,0 L82,0 L82,7 L81,7 L81,10 L80,10 L80,11 L79,11 L79,13 L78,13 L78,14 L77,14 L77,15 L76,15 L76,16 L74,16 L74,17 L73,17 L73,18 L71,18 L71,19 L68,19 L68,20 L65,20 L65,21 L62,21 L62,22 L58,22 L58,23 L55,23 L55,24 L30,24 L30,23 L24,23 L24,22 L20,22 L20,21 L16,21 L16,20 L13,20 L13,19 L11,19 L11,18 L9,18 L9,17 L8,17 L8,16 L6,16 L6,15 L5,15 L5,14 L4,14 L4,13 L3,13 L3,11 L2,11 L2,10 L1,10 L1,7 L0,7 Z " fill="#468BBE" transform="translate(23,84)"/>
<path d="M0,0 L15,0 L15,1 L17,1 L17,9 L22,9 L22,10 L31,10 L31,3 L32,3 L32,2 L50,2 L50,3 L51,3 L51,10 L60,10 L60,9 L65,9 L65,1 L67,1 L67,0 L82,0 L82,3 L73,3 L73,4 L68,4 L68,12 L59,12 L59,13 L49,13 L49,12 L48,12 L48,6 L34,6 L34,12 L33,12 L33,13 L24,13 L24,12 L14,12 L14,4 L7,4 L7,3 L0,3 Z " fill="#FFFFFF" transform="translate(23,81)"/>
<path d="M0,0 L5,0 L5,1 L7,1 L7,2 L8,2 L8,3 L9,3 L9,4 L10,4 L10,5 L11,5 L11,7 L12,7 L12,12 L11,12 L11,14 L10,14 L10,15 L9,15 L9,16 L8,16 L8,17 L7,17 L7,18 L-2,18 L-2,17 L-3,17 L-3,16 L-4,16 L-4,15 L-5,15 L-5,14 L-6,14 L-6,5 L-5,5 L-5,4 L-4,4 L-4,3 L-3,3 L-3,2 L-2,2 L-2,1 L0,1 Z " fill="#FEFEFE" transform="translate(83,56)"/>
<path d="M0,0 L5,0 L5,1 L7,1 L7,2 L8,2 L8,3 L9,3 L9,4 L10,4 L10,5 L11,5 L11,7 L12,7 L12,12 L11,12 L11,14 L10,14 L10,15 L9,15 L9,16 L8,16 L8,17 L7,17 L7,18 L-2,18 L-2,17 L-3,17 L-3,16 L-4,16 L-4,15 L-5,15 L-5,14 L-6,14 L-6,5 L-5,5 L-5,4 L-4,4 L-4,3 L-3,3 L-3,2 L-2,2 L-2,1 L0,1 Z " fill="#FFFFFF" transform="translate(40,56)"/>
<path d="M0,0 L5,0 L5,1 L7,1 L7,2 L8,2 L8,4 L9,4 L9,8 L8,8 L8,10 L7,10 L7,11 L5,11 L5,12 L0,12 L0,11 L-1,11 L-1,10 L-2,10 L-2,9 L-3,9 L-3,3 L-2,3 L-2,2 L-1,2 L-1,1 L0,1 Z " fill="#414042" transform="translate(82,60)"/>
<path d="M0,0 L5,0 L5,1 L6,1 L6,2 L7,2 L7,3 L8,3 L8,9 L7,9 L7,10 L6,10 L6,11 L5,11 L5,12 L0,12 L0,11 L-2,11 L-2,10 L-3,10 L-3,8 L-4,8 L-4,4 L-3,4 L-3,2 L-2,2 L-2,1 L0,1 Z " fill="#414042" transform="translate(41,60)"/>
<path d="M0,0 L4,0 L4,1 L5,1 L5,12 L4,12 L4,13 L0,13 L0,12 L-1,12 L-1,1 L0,1 Z " fill="#FFFFFF" transform="translate(62,62)"/>
<path d="M0,0 L1,0 L1,33 L0,33 Z " fill="#384861" transform="translate(105,55)"/>
<path d="M0,0 L1,0 L1,33 L0,33 Z " fill="#36435A" transform="translate(22,55)"/>
<path d="M0,0 L1,0 L1,5 L0,5 L0,7 L-1,7 L-1,8 L-2,8 L-2,9 L-3,9 L-3,10 L-4,10 L-4,11 L-5,11 L-5,8 L-4,8 L-4,7 L-3,7 L-3,6 L-2,6 L-2,2 L-1,2 L-1,4 L0,4 Z " fill="#FFFFFF" transform="translate(51,63)"/>
<path d="M0,0 L18,0 L18,1 L0,1 Z " fill="#D6E6F1" transform="translate(55,83)"/>
<path d="M0,0 L1,0 L1,4 L2,4 L2,5 L3,5 L3,6 L4,6 L4,9 L3,9 L3,8 L2,8 L2,7 L1,7 L1,6 L0,6 L0,5 L-1,5 L-1,2 L0,2 Z " fill="#FFFFFF" transform="translate(78,65)"/>
<path d="M0,0 L16,0 L16,1 L0,1 Z " fill="#3C5F82" transform="translate(56,108)"/>
<path d="M0,0 L14,0 L14,1 L0,1 Z " fill="#ABCAE2" transform="translate(57,86)"/>
<path d="M0,0 L2,0 L2,1 L1,1 L1,2 L0,2 L0,3 L-1,3 L-1,4 L-2,4 L-2,5 L-3,5 L-3,6 L-5,6 L-5,5 L-4,5 L-4,4 L-3,4 L-3,3 L-2,3 L-2,2 L-1,2 L-1,1 L0,1 Z " fill="#363D52" transform="translate(10,5)"/>
<path d="M0,0 L1,0 L1,3 L-8,3 L-8,2 L0,2 Z " fill="#69A1CB" transform="translate(53,88)"/>
<path d="M0,0 L1,0 L1,2 L9,2 L9,3 L0,3 Z " fill="#86B3D5" transform="translate(74,88)"/>
<path d="M0,0 L1,0 L1,5 L0,5 L0,6 L-2,6 L-2,2 L-1,2 L-1,4 L0,4 Z " fill="#FFFFFF" transform="translate(51,63)"/>
<path d="M0,0 L1,0 L1,11 L0,11 Z " fill="#F7FAFC" transform="translate(66,63)"/>
<path d="M0,0 L1,0 L1,11 L0,11 Z " fill="#EEF5F9" transform="translate(61,63)"/>
<path d="M0,0 L1,0 L1,11 L0,11 Z " fill="#468ABD" transform="translate(85,24)"/>
<path d="M0,0 L1,0 L1,11 L0,11 Z " fill="#4586B7" transform="translate(42,24)"/>
<path d="M0,0 L2,0 L2,1 L1,1 L1,2 L0,2 L0,3 L-1,3 L-1,4 L-2,4 L-2,5 L-4,5 L-4,4 L-3,4 L-3,3 L-2,3 L-2,2 L-1,2 L-1,1 L0,1 Z " fill="#FFFFFF" transform="translate(81,57)"/>
<path d="M0,0 L5,0 L5,1 L4,1 L4,2 L0,2 Z " fill="#FFFFFF" transform="translate(82,72)"/>
<path d="M0,0 L8,0 L8,1 L0,1 Z " fill="#5997C5" transform="translate(82,93)"/>
<path d="M0,0 L8,0 L8,1 L0,1 Z " fill="#C0D8E9" transform="translate(39,93)"/>
<path d="M0,0 L8,0 L8,1 L0,1 Z " fill="#498DBF" transform="translate(23,80)"/>
<path d="M0,0 L2,0 L2,1 L1,1 L1,2 L0,2 L0,3 L-1,3 L-1,4 L-3,4 L-3,3 L-2,3 L-2,2 L-1,2 L-1,1 L0,1 Z " fill="#414042" transform="translate(82,60)"/>
<path d="M0,0 L3,0 L3,1 L2,1 L2,2 L1,2 L1,3 L0,3 L0,4 L-1,4 L-1,2 L0,2 Z " fill="#478CBF" transform="translate(73,20)"/>
<path d="M0,0 L1,0 L1,1 L0,1 Z M-1,1 L0,1 L0,2 L-1,2 Z " fill="#202431" opacity="0.8980392" transform="translate(5,4)"/>
<path d="M0,0 L1,0 L1,1 L0,1 Z M-1,1 L0,1 L0,2 L-1,2 Z M-2,2 L-1,2 L-1,3 L-2,3 Z M-3,3 L-2,3 L-2,4 L-3,4 Z M-4,4 L-3,4 L-3,5 L-4,5 Z " fill="#212532" transform="translate(7,3)"/>
<path d="M0,0 L1,0 L1,4 L0,4 L0,5 L-1,5 L-1,2 L0,2 Z " fill="#FFFFFF" transform="translate(78,65)"/>
<path d="M0,0 L1,0 L1,5 L0,5 L0,3 L-1,3 L-1,1 L0,1 Z " fill="#FFFFFF" transform="translate(50,62)"/>
<path d="M0,0 L1,0 L1,6 L0,6 Z " fill="#82B1D4" transform="translate(91,85)"/>
<path d="M0,0 L6,0 L6,1 L0,1 Z " fill="#AFCDE3" transform="translate(30,84)"/>
<path d="M0,0 L6,0 L6,1 L0,1 Z " fill="#ACCBE2" transform="translate(32,81)"/>
<path d="M0,0 L6,0 L6,1 L0,1 Z " fill="#83A8C6" transform="translate(99,80)"/>
<path d="M0,0 L6,0 L6,1 L0,1 Z " fill="#3A4F6C" transform="translate(61,28)"/>
<path d="M0,0 L1,0 L1,1 L0,1 Z " fill="#202431" opacity="0.73333335" transform="translate(114,127)"/>
<path d="M0,0 L1,0 L1,1 L0,1 Z M1,1 L2,1 L2,2 L1,2 Z " fill="#202431" opacity="0.8862745" transform="translate(4,122)"/>
<path d="M0,0 L1,0 L1,1 L0,1 Z " fill="#202431" opacity="0.73333335" transform="translate(127,114)"/>
<path d="M0,0 L1,0 L1,1 L0,1 Z " fill="#202431" opacity="0.74509805" transform="translate(0,114)"/>
<path d="M0,0 L5,0 L5,1 L0,1 Z " fill="#97BEDB" transform="translate(83,74)"/>
<path d="M0,0 L5,0 L5,1 L0,1 Z " fill="#96BDDA" transform="translate(40,74)"/>
<path d="M0,0 L2,0 L2,2 L-1,2 L-1,1 L0,1 Z " fill="#FFFFFF" transform="translate(44,72)"/>
<path d="M0,0 L1,0 L1,5 L0,5 Z " fill="#A6C7E0" transform="translate(94,63)"/>
<path d="M0,0 L1,0 L1,5 L0,5 Z " fill="#99BFDB" transform="translate(76,63)"/>
<path d="M0,0 L1,0 L1,5 L0,5 Z " fill="#A3C6DF" transform="translate(51,63)"/>
<path d="M0,0 L1,0 L1,5 L0,5 Z " fill="#9FC3DD" transform="translate(33,63)"/>
<path d="M0,0 L1,0 L1,2 L0,2 L0,4 L-1,4 L-1,1 L0,1 Z " fill="#FFFFFF" transform="translate(78,63)"/>
<path d="M0,0 L5,0 L5,1 L0,1 Z " fill="#AFCDE3" transform="translate(83,56)"/>
<path d="M0,0 L5,0 L5,1 L0,1 Z " fill="#AFCDE3" transform="translate(40,56)"/>
<path d="M0,0 L1,0 L1,5 L0,5 Z " fill="#3B5978" transform="translate(85,30)"/>
<path d="M0,0 L1,0 L1,5 L0,5 Z " fill="#3B5573" transform="translate(42,30)"/>
<path d="M0,0 L1,0 L1,1 L0,1 Z " fill="#202431" opacity="0.74509805" transform="translate(114,0)"/>
<path d="M0,0 L1,0 L1,1 L0,1 Z " fill="#202431" opacity="0.73333335" transform="translate(13,127)"/>
<path d="M0,0 L4,0 L4,1 L0,1 Z " fill="#343B4F" transform="translate(12,123)"/>
<path d="M0,0 L1,0 L1,1 L0,1 Z " fill="#202431" opacity="0.95686275" transform="translate(2,119)"/>
<path d="M0,0 L4,0 L4,1 L0,1 Z " fill="#384861" transform="translate(68,108)"/>
<path d="M0,0 L4,0 L4,1 L0,1 Z " fill="#3A526F" transform="translate(56,108)"/>
<path d="M0,0 L4,0 L4,1 L0,1 Z " fill="#3C5979" transform="translate(74,107)"/>
<path d="M0,0 L4,0 L4,1 L0,1 Z " fill="#406F97" transform="translate(49,107)"/>
<path d="M0,0 L4,0 L4,1 L0,1 Z " fill="#488CBF" transform="translate(73,94)"/>
<path d="M0,0 L4,0 L4,1 L0,1 Z " fill="#8EB8D8" transform="translate(82,93)"/>
<path d="M0,0 L4,0 L4,1 L0,1 Z " fill="#C1D8E9" transform="translate(78,93)"/>
<path d="M0,0 L4,0 L4,1 L0,1 Z " fill="#F2F7FB" transform="translate(47,93)"/>
<path d="M0,0 L4,0 L4,1 L0,1 Z " fill="#8DB8D7" transform="translate(39,93)"/>
<path d="M0,0 L4,0 L4,1 L0,1 Z " fill="#CBDEED" transform="translate(79,90)"/>
<path d="M0,0 L4,0 L4,1 L0,1 Z " fill="#A2C5DE" transform="translate(45,90)"/>
<path d="M0,0 L1,0 L1,4 L0,4 Z " fill="#7BACD1" transform="translate(36,85)"/>
<path d="M0,0 L1,0 L1,4 L0,4 Z " fill="#384861" transform="translate(105,84)"/>
<path d="M0,0 L1,0 L1,4 L0,4 Z " fill="#E9F1F8" transform="translate(88,82)"/>
<path d="M0,0 L1,0 L1,4 L0,4 Z " fill="#F1F6FA" transform="translate(39,82)"/>
<path d="M0,0 L1,0 L1,4 L0,4 Z " fill="#36435A" transform="translate(22,84)"/>
<path d="M0,0 L4,0 L4,1 L0,1 Z " fill="#5D9AC6" transform="translate(96,84)"/>
<path d="M0,0 L4,0 L4,1 L0,1 Z " fill="#9FC3DD" transform="translate(92,84)"/>
<path d="M0,0 L4,0 L4,1 L0,1 Z " fill="#F4F8FB" transform="translate(23,83)"/>
<path d="M0,0 L1,0 L1,4 L0,4 Z " fill="#52586A" transform="translate(105,80)"/>
<path d="M0,0 L4,0 L4,1 L0,1 Z " fill="#BDD6E8" transform="translate(90,81)"/>
<path d="M0,0 L1,0 L1,4 L0,4 Z " fill="#454C5F" transform="translate(22,80)"/>
<path d="M0,0 L4,0 L4,1 L0,1 Z " fill="#78A3C5" transform="translate(23,80)"/>
<path d="M0,0 L1,0 L1,4 L0,4 Z " fill="#7C7C7D" transform="translate(90,64)"/>
<path d="M0,0 L1,0 L1,4 L0,4 Z " fill="#878687" transform="translate(37,64)"/>
<path d="M0,0 L2,0 L2,1 L1,1 L1,2 L-1,2 L-1,1 L0,1 Z " fill="#414042" transform="translate(39,61)"/>
<path d="M0,0 L1,0 L1,4 L0,4 Z " fill="#343B4F" transform="translate(123,12)"/>
<path d="M0,0 L1,0 L1,4 L0,4 Z " fill="#343B50" transform="translate(4,12)"/>
<path d="M0,0 L1,0 L1,1 L0,1 Z " fill="#202431" opacity="0.73333335" transform="translate(127,13)"/>
<path d="M0,0 L1,0 L1,1 L0,1 Z " fill="#202431" opacity="0.74509805" transform="translate(0,13)"/>
<path d="M0,0 L1,0 L1,1 L0,1 Z " fill="#202431" opacity="0.76862746" transform="translate(124,6)"/>
<path d="M0,0 L4,0 L4,1 L0,1 Z " fill="#343B50" transform="translate(12,4)"/>
<path d="M0,0 L1,0 L1,1 L0,1 Z " fill="#202431" opacity="0.7921569" transform="translate(6,3)"/>
<path d="M0,0 L1,0 L1,1 L0,1 Z " fill="#202431" opacity="0.95686275" transform="translate(119,2)"/>
<path d="M0,0 L1,0 L1,1 L0,1 Z " fill="#202431" opacity="0.74509805" transform="translate(13,0)"/>
<path d="M0,0 L3,0 L3,1 L0,1 Z " fill="#5E9AC7" transform="translate(52,94)"/>
<path d="M0,0 L1,0 L1,3 L0,3 Z " fill="#ABCAE2" transform="translate(71,90)"/>
<path d="M0,0 L1,0 L1,3 L0,3 Z " fill="#B3CFE5" transform="translate(56,90)"/>
<path d="M0,0 L1,0 L1,3 L0,3 Z " fill="#7EAED2" transform="translate(53,88)"/>
<path d="M0,0 L3,0 L3,1 L0,1 Z " fill="#D4E4F0" transform="translate(102,83)"/>
<path d="M0,0 L2,0 L2,1 L1,1 L1,2 L0,2 Z " fill="#FFFFFF" transform="translate(62,62)"/>
<path d="M0,0 L3,0 L3,1 L0,1 Z " fill="#41719A" transform="translate(73,20)"/>
<path d="M0,0 L3,0 L3,1 L0,1 Z " fill="#416F98" transform="translate(52,20)"/>
<path d="M0,0 L1,0 L1,1 L0,1 Z " fill="#202431" opacity="0.8901961" transform="translate(122,4)"/>
<path d="M0,0 L1,0 L1,1 L0,1 Z " fill="#202431" opacity="0.015686275" transform="translate(117,127)"/>
<path d="M0,0 L1,0 L1,1 L0,1 Z " fill="#202431" opacity="0.94509804" transform="translate(15,127)"/>
<path d="M0,0 L1,0 L1,1 L0,1 Z " fill="#1E2231" opacity="0.2627451" transform="translate(11,127)"/>
<path d="M0,0 L1,0 L1,1 L0,1 Z " fill="#212430" opacity="0.5764706" transform="translate(9,126)"/>
<path d="M0,0 L1,0 L1,1 L0,1 Z " fill="#202432" opacity="0.019607844" transform="translate(121,125)"/>
<path d="M0,0 L1,0 L1,1 L0,1 Z " fill="#202431" opacity="0.49019608" transform="translate(7,125)"/>
<path d="M0,0 L2,0 L2,1 L0,1 Z " fill="#222634" transform="translate(115,123)"/>
<path d="M0,0 L2,0 L2,1 L0,1 Z " fill="#2E3548" transform="translate(113,123)"/>
<path d="M0,0 L2,0 L2,1 L0,1 Z " fill="#2F3548" transform="translate(12,123)"/>
<path d="M0,0 L2,0 L2,1 L0,1 Z " fill="#353C50" transform="translate(10,122)"/>
<path d="M0,0 L1,0 L1,1 L0,1 Z " fill="#212531" opacity="0.019607844" transform="translate(125,121)"/>
<path d="M0,0 L1,0 L1,1 L0,1 Z M-1,1 L0,1 L0,2 L-1,2 Z " fill="#353C51" transform="translate(120,119)"/>
<path d="M0,0 L1,0 L1,1 L0,1 Z M1,1 L2,1 L2,2 L1,2 Z " fill="#353C51" transform="translate(7,119)"/>
<path d="M0,0 L1,0 L1,1 L0,1 Z " fill="#1F2232" opacity="0.015686275" transform="translate(127,117)"/>
<path d="M0,0 L1,0 L1,1 L0,1 Z " fill="#202432" opacity="0.023529412" transform="translate(0,117)"/>
<path d="M0,0 L1,0 L1,2 L0,2 Z " fill="#222634" transform="translate(123,115)"/>
<path d="M0,0 L1,0 L1,2 L0,2 Z " fill="#232635" transform="translate(4,115)"/>
<path d="M0,0 L1,0 L1,2 L0,2 Z " fill="#2E3548" transform="translate(123,113)"/>
<path d="M0,0 L1,0 L1,2 L0,2 Z " fill="#303649" transform="translate(4,113)"/>
<path d="M0,0 L2,0 L2,1 L0,1 Z " fill="#394E6B" transform="translate(68,108)"/>
<path d="M0,0 L2,0 L2,1 L0,1 Z " fill="#3A5575" transform="translate(66,108)"/>
<path d="M0,0 L2,0 L2,1 L0,1 Z " fill="#3B5979" transform="translate(60,108)"/>
<path d="M0,0 L2,0 L2,1 L0,1 Z " fill="#384B66" transform="translate(56,108)"/>
<path d="M0,0 L2,0 L2,1 L0,1 Z " fill="#364159" transform="translate(78,107)"/>
<path d="M0,0 L2,0 L2,1 L0,1 Z " fill="#406E96" transform="translate(74,107)"/>
<path d="M0,0 L2,0 L2,1 L0,1 Z " fill="#4584B4" transform="translate(53,107)"/>
<path d="M0,0 L2,0 L2,1 L0,1 Z " fill="#3C5979" transform="translate(49,107)"/>
<path d="M0,0 L2,0 L2,1 L0,1 Z " fill="#3C5878" transform="translate(81,106)"/>
<path d="M0,0 L2,0 L2,1 L0,1 Z " fill="#3F6B93" transform="translate(45,106)"/>
<path d="M0,0 L2,0 L2,1 L0,1 Z " fill="#3B5878" transform="translate(85,105)"/>
<path d="M0,0 L2,0 L2,1 L0,1 Z " fill="#407099" transform="translate(41,105)"/>
<path d="M0,0 L2,0 L2,1 L0,1 Z " fill="#39506C" transform="translate(88,104)"/>
<path d="M0,0 L2,0 L2,1 L0,1 Z " fill="#4587B9" transform="translate(39,104)"/>
<path d="M0,0 L2,0 L2,1 L0,1 Z " fill="#38475F" transform="translate(91,103)"/>
<path d="M0,0 L2,0 L2,1 L0,1 Z " fill="#4482B1" transform="translate(36,103)"/>
<path d="M0,0 L2,0 L2,1 L0,1 Z " fill="#468ABD" transform="translate(34,102)"/>
<path d="M0,0 L2,0 L2,1 L0,1 Z " fill="#468ABC" transform="translate(32,101)"/>
<path d="M0,0 L2,0 L2,1 L0,1 Z " fill="#468BBE" transform="translate(29,99)"/>
<path d="M0,0 L1,0 L1,1 L0,1 Z M-1,1 L0,1 L0,2 L-1,2 Z " fill="#363F56" transform="translate(101,97)"/>
<path d="M0,0 L1,0 L1,1 L0,1 Z M1,1 L2,1 L2,2 L1,2 Z " fill="#363F56" transform="translate(26,97)"/>
<path d="M0,0 L2,0 L2,1 L0,1 Z " fill="#5F9BC7" transform="translate(73,94)"/>
<path d="M0,0 L2,0 L2,1 L0,1 Z " fill="#75A9CF" transform="translate(86,93)"/>
<path d="M0,0 L2,0 L2,1 L0,1 Z " fill="#A7C8E1" transform="translate(82,93)"/>
<path d="M0,0 L2,0 L2,1 L0,1 Z " fill="#DAE8F2" transform="translate(78,93)"/>
<path d="M0,0 L2,0 L2,1 L0,1 Z " fill="#D9E7F2" transform="translate(47,93)"/>
<path d="M0,0 L2,0 L2,1 L0,1 Z " fill="#A7C8E0" transform="translate(43,93)"/>
<path d="M0,0 L2,0 L2,1 L0,1 Z " fill="#75A9CF" transform="translate(39,93)"/>
<path d="M0,0 L1,0 L1,2 L0,2 Z " fill="#384963" transform="translate(104,91)"/>
<path d="M0,0 L1,0 L1,2 L0,2 Z " fill="#384760" transform="translate(23,91)"/>
<path d="M0,0 L1,0 L1,2 L0,2 Z " fill="#68A1CA" transform="translate(91,89)"/>
<path d="M0,0 L2,0 L2,1 L0,1 Z " fill="#E7F0F7" transform="translate(83,90)"/>
<path d="M0,0 L2,0 L2,1 L0,1 Z " fill="#AFCDE3" transform="translate(79,90)"/>
<path d="M0,0 L2,0 L2,1 L0,1 Z " fill="#92BBD9" transform="translate(77,90)"/>
<path d="M0,0 L2,0 L2,1 L0,1 Z " fill="#76A9CF" transform="translate(75,90)"/>
<path d="M0,0 L2,0 L2,1 L0,1 Z " fill="#85B3D5" transform="translate(49,90)"/>
<path d="M0,0 L2,0 L2,1 L0,1 Z " fill="#BED6E8" transform="translate(45,90)"/>
<path d="M0,0 L2,0 L2,1 L0,1 Z " fill="#DAE8F2" transform="translate(43,90)"/>
<path d="M0,0 L1,0 L1,2 L0,2 Z " fill="#619CC8" transform="translate(36,89)"/>
<path d="M0,0 L2,0 L2,1 L0,1 Z " fill="#4C8FC0" transform="translate(40,89)"/>
<path d="M0,0 L1,0 L1,2 L0,2 Z " fill="#4B8EC0" transform="translate(70,87)"/>
<path d="M0,0 L1,0 L1,2 L0,2 Z " fill="#5192C2" transform="translate(57,87)"/>
<path d="M0,0 L1,0 L1,2 L0,2 Z " fill="#9DC2DD" transform="translate(91,85)"/>
<path d="M0,0 L2,0 L2,1 L0,1 Z " fill="#ABCAE2" transform="translate(57,86)"/>
<path d="M0,0 L1,0 L1,2 L0,2 Z " fill="#95BDDA" transform="translate(36,85)"/>
<path d="M0,0 L1,0 L1,2 L0,2 Z " fill="#DDEAF3" transform="translate(73,84)"/>
<path d="M0,0 L1,0 L1,2 L0,2 Z " fill="#D5E5F1" transform="translate(54,84)"/>
<path d="M0,0 L2,0 L2,1 L0,1 Z " fill="#7EAED2" transform="translate(96,84)"/>
<path d="M0,0 L2,0 L2,1 L0,1 Z " fill="#C0D8E9" transform="translate(92,84)"/>
<path d="M0,0 L2,0 L2,1 L0,1 Z " fill="#CFE1EE" transform="translate(34,84)"/>
<path d="M0,0 L2,0 L2,1 L0,1 Z " fill="#8DB8D7" transform="translate(30,84)"/>
<path d="M0,0 L2,0 L2,1 L0,1 Z " fill="#6DA4CC" transform="translate(28,84)"/>
<path d="M0,0 L1,0 L1,2 L0,2 Z " fill="#D2E3F0" transform="translate(88,82)"/>
<path d="M0,0 L2,0 L2,1 L0,1 Z " fill="#D6E6F1" transform="translate(55,83)"/>
<path d="M0,0 L1,0 L1,2 L0,2 Z " fill="#DAE8F2" transform="translate(39,82)"/>
<path d="M0,0 L2,0 L2,1 L0,1 Z " fill="#D3E4F0" transform="translate(23,83)"/>
<path d="M0,0 L2,0 L2,1 L0,1 Z " fill="#DFEBF4" transform="translate(94,81)"/>
<path d="M0,0 L2,0 L2,1 L0,1 Z " fill="#9AC0DC" transform="translate(90,81)"/>
<path d="M0,0 L2,0 L2,1 L0,1 Z " fill="#8AB6D6" transform="translate(36,81)"/>
<path d="M0,0 L2,0 L2,1 L0,1 Z " fill="#CFE1EE" transform="translate(32,81)"/>
<path d="M0,0 L2,0 L2,1 L0,1 Z " fill="#9BB4C9" transform="translate(103,80)"/>
<path d="M0,0 L2,0 L2,1 L0,1 Z " fill="#6C9DC3" transform="translate(99,80)"/>
<path d="M0,0 L2,0 L2,1 L0,1 Z " fill="#6098C2" transform="translate(27,80)"/>
<path d="M0,0 L2,0 L2,1 L0,1 Z " fill="#90AFC8" transform="translate(23,80)"/>
<path d="M0,0 L2,0 L2,1 L0,1 Z " fill="#92BBD9" transform="translate(63,75)"/>
<path d="M0,0 L2,0 L2,1 L0,1 Z " fill="#95BCDA" transform="translate(83,74)"/>
<path d="M0,0 L2,0 L2,1 L0,1 Z " fill="#95BDDA" transform="translate(40,74)"/>
<path d="M0,0 L1,0 L1,1 L0,1 Z M-1,1 L0,1 L0,2 L-1,2 Z " fill="#FFFFFF" transform="translate(86,72)"/>
<path d="M0,0 L2,0 L2,1 L0,1 Z " fill="#FDFDFD" transform="translate(84,72)"/>
<path d="M0,0 L1,0 L1,1 L0,1 Z M-1,1 L0,1 L0,2 L-1,2 Z " fill="#FFFFFF" transform="translate(44,72)"/>
<path d="M0,0 L2,0 L2,1 L0,1 Z " fill="#5B5B5C" transform="translate(82,71)"/>
<path d="M0,0 L2,0 L2,1 L0,1 Z " fill="#4C4B4D" transform="translate(41,71)"/>
<path d="M0,0 L1,0 L1,2 L0,2 Z " fill="#D0D0D1" transform="translate(78,65)"/>
<path d="M0,0 L1,0 L1,2 L0,2 Z " fill="#FFFFFF" transform="translate(77,65)"/>
<path d="M0,0 L1,0 L1,2 L0,2 Z " fill="#FFFFFF" transform="translate(50,65)"/>
<path d="M0,0 L1,0 L1,2 L0,2 Z " fill="#C8C8C9" transform="translate(49,65)"/>
<path d="M0,0 L1,0 L1,2 L0,2 Z " fill="#A8C9E1" transform="translate(94,63)"/>
<path d="M0,0 L1,0 L1,2 L0,2 Z " fill="#9BC1DC" transform="translate(76,63)"/>
<path d="M0,0 L1,0 L1,2 L0,2 Z " fill="#F5F9FC" transform="translate(66,63)"/>
<path d="M0,0 L1,0 L1,2 L0,2 Z " fill="#EDF4F9" transform="translate(61,63)"/>
<path d="M0,0 L1,0 L1,2 L0,2 Z " fill="#A5C7E0" transform="translate(51,63)"/>
<path d="M0,0 L1,0 L1,2 L0,2 Z " fill="#A1C4DE" transform="translate(33,63)"/>
<path d="M0,0 L1,0 L1,2 L0,2 Z " fill="#434244" transform="translate(89,62)"/>
<path d="M0,0 L2,0 L2,1 L0,1 Z " fill="#79ABD0" transform="translate(63,61)"/>
<path d="M0,0 L2,0 L2,1 L0,1 Z " fill="#6B6A6C" transform="translate(82,60)"/>
<path d="M0,0 L2,0 L2,1 L0,1 Z " fill="#5B5B5C" transform="translate(41,60)"/>
<path d="M0,0 L1,0 L1,2 L0,2 Z " fill="#384861" transform="translate(105,55)"/>
<path d="M0,0 L2,0 L2,1 L0,1 Z " fill="#AECCE3" transform="translate(83,56)"/>
<path d="M0,0 L2,0 L2,1 L0,1 Z " fill="#AFCDE3" transform="translate(40,56)"/>
<path d="M0,0 L1,0 L1,2 L0,2 Z " fill="#36435A" transform="translate(22,55)"/>
<path d="M0,0 L1,0 L1,2 L0,2 Z " fill="#363E53" transform="translate(106,53)"/>
<path d="M0,0 L1,0 L1,2 L0,2 Z " fill="#468ABD" transform="translate(18,45)"/>
<path d="M0,0 L1,0 L1,2 L0,2 Z " fill="#468ABD" transform="translate(20,42)"/>
<path d="M0,0 L2,0 L2,1 L0,1 Z " fill="#384964" transform="translate(93,40)"/>
<path d="M0,0 L2,0 L2,1 L0,1 Z " fill="#468ABD" transform="translate(98,38)"/>
<path d="M0,0 L2,0 L2,1 L0,1 Z " fill="#394C67" transform="translate(25,36)"/>
<path d="M0,0 L2,0 L2,1 L0,1 Z " fill="#468ABC" transform="translate(41,35)"/>
<path d="M0,0 L1,0 L1,2 L0,2 Z " fill="#3F6A90" transform="translate(85,30)"/>
<path d="M0,0 L1,0 L1,2 L0,2 Z " fill="#3E668B" transform="translate(42,30)"/>
<path d="M0,0 L1,0 L1,2 L0,2 Z " fill="#427AA6" transform="translate(85,28)"/>
<path d="M0,0 L1,0 L1,2 L0,2 Z " fill="#4176A1" transform="translate(42,28)"/>
<path d="M0,0 L2,0 L2,1 L0,1 Z " fill="#37455C" transform="translate(65,28)"/>
<path d="M0,0 L2,0 L2,1 L0,1 Z " fill="#384A64" transform="translate(61,28)"/>
<path d="M0,0 L2,0 L2,1 L0,1 Z " fill="#468ABD" transform="translate(44,23)"/>
<path d="M0,0 L2,0 L2,1 L0,1 Z " fill="#37465F" transform="translate(81,22)"/>
<path d="M0,0 L2,0 L2,1 L0,1 Z " fill="#4483B2" transform="translate(46,22)"/>
<path d="M0,0 L2,0 L2,1 L0,1 Z " fill="#3A526F" transform="translate(78,21)"/>
<path d="M0,0 L2,0 L2,1 L0,1 Z " fill="#437CAA" transform="translate(49,21)"/>
<path d="M0,0 L1,0 L1,1 L0,1 Z " fill="#202431" opacity="0.94509804" transform="translate(127,15)"/>
<path d="M0,0 L1,0 L1,1 L0,1 Z " fill="#202431" opacity="0.9529412" transform="translate(0,15)"/>
<path d="M0,0 L1,0 L1,2 L0,2 Z " fill="#2F3548" transform="translate(123,12)"/>
<path d="M0,0 L1,0 L1,2 L0,2 Z " fill="#303648" transform="translate(4,12)"/>
<path d="M0,0 L1,0 L1,1 L0,1 Z " fill="#1E2231" opacity="0.2627451" transform="translate(127,11)"/>
<path d="M0,0 L1,0 L1,2 L0,2 Z " fill="#353C50" transform="translate(122,10)"/>
<path d="M0,0 L1,0 L1,1 L0,1 Z " fill="#202331" opacity="0.28235295" transform="translate(0,11)"/>
<path d="M0,0 L1,0 L1,1 L0,1 Z " fill="#212430" opacity="0.5764706" transform="translate(126,9)"/>
<path d="M0,0 L1,0 L1,1 L0,1 Z " fill="#1F2432" opacity="0.6" transform="translate(1,9)"/>
<path d="M0,0 L1,0 L1,1 L0,1 Z M1,1 L2,1 L2,2 L1,2 Z " fill="#353C51" transform="translate(119,7)"/>
<path d="M0,0 L1,0 L1,1 L0,1 Z M-1,1 L0,1 L0,2 L-1,2 Z " fill="#353C51" transform="translate(8,7)"/>
<path d="M0,0 L1,0 L1,1 L0,1 Z " fill="#212530" opacity="0.5137255" transform="translate(2,7)"/>
<path d="M0,0 L2,0 L2,1 L0,1 Z " fill="#353C51" transform="translate(10,5)"/>
<path d="M0,0 L2,0 L2,1 L0,1 Z " fill="#232635" transform="translate(115,4)"/>
<path d="M0,0 L2,0 L2,1 L0,1 Z " fill="#303649" transform="translate(113,4)"/>
<path d="M0,0 L2,0 L2,1 L0,1 Z " fill="#303648" transform="translate(12,4)"/>
<path d="M0,0 L1,0 L1,1 L0,1 Z " fill="#202430" opacity="0.5176471" transform="translate(7,2)"/>
<path d="M0,0 L1,0 L1,1 L0,1 Z " fill="#212431" opacity="0.60784316" transform="translate(9,1)"/>
<path d="M0,0 L1,0 L1,1 L0,1 Z " fill="#202432" opacity="0.023529412" transform="translate(117,0)"/>
<path d="M0,0 L1,0 L1,1 L0,1 Z " fill="#202431" opacity="0.9529412" transform="translate(15,0)"/>
<path d="M0,0 L1,0 L1,1 L0,1 Z " fill="#202331" opacity="0.28235295" transform="translate(11,0)"/>
<path d="M0,0 L1,0 L1,1 L0,1 Z " fill="#1F232F" opacity="0.25490198" transform="translate(116,127)"/>
<path d="M0,0 L1,0 L1,1 L0,1 Z " fill="#202331" opacity="0.5647059" transform="translate(115,127)"/>
<path d="M0,0 L1,0 L1,1 L0,1 Z " fill="#202531" opacity="0.8392157" transform="translate(113,127)"/>
<path d="M0,0 L1,0 L1,1 L0,1 Z " fill="#202531" opacity="0.9490196" transform="translate(112,127)"/>
<path d="M0,0 L1,0 L1,1 L0,1 Z " fill="#202531" opacity="0.8392157" transform="translate(14,127)"/>
<path d="M0,0 L1,0 L1,1 L0,1 Z " fill="#1F2531" opacity="0.5686275" transform="translate(12,127)"/>
<path d="M0,0 L1,0 L1,1 L0,1 Z " fill="#202431" opacity="0.015686275" transform="translate(10,127)"/>
<path d="M0,0 L1,0 L1,1 L0,1 Z " fill="#192633" opacity="0.078431375" transform="translate(119,126)"/>
<path d="M0,0 L1,0 L1,1 L0,1 Z " fill="#202332" opacity="0.56078434" transform="translate(118,126)"/>
<path d="M0,0 L1,0 L1,1 L0,1 Z " fill="#202431" opacity="0.92941177" transform="translate(117,126)"/>
<path d="M0,0 L1,0 L1,1 L0,1 Z " fill="#202431" opacity="0.93333334" transform="translate(10,126)"/>
<path d="M0,0 L1,0 L1,1 L0,1 Z " fill="#17222E" opacity="0.08627451" transform="translate(8,126)"/>
<path d="M0,0 L1,0 L1,1 L0,1 Z " fill="#1F2331" opacity="0.48235294" transform="translate(120,125)"/>
<path d="M0,0 L1,0 L1,1 L0,1 Z " fill="#202431" opacity="0.94509804" transform="translate(119,125)"/>
<path d="M0,0 L1,0 L1,1 L0,1 Z " fill="#202531" opacity="0.9490196" transform="translate(8,125)"/>
<path d="M0,0 L1,0 L1,1 L0,1 Z " fill="#202431" opacity="0.023529412" transform="translate(6,125)"/>
<path d="M0,0 L1,0 L1,1 L0,1 Z " fill="#182430" opacity="0.08235294" transform="translate(122,124)"/>
<path d="M0,0 L1,0 L1,1 L0,1 Z " fill="#202432" opacity="0.7607843" transform="translate(121,124)"/>
<path d="M0,0 L1,0 L1,1 L0,1 Z " fill="#202431" opacity="0.76862746" transform="translate(6,124)"/>
<path d="M0,0 L1,0 L1,1 L0,1 Z " fill="#21212C" opacity="0.09019608" transform="translate(5,124)"/>
<path d="M0,0 L1,0 L1,1 L0,1 Z " fill="#1D232F" opacity="0.16862746" transform="translate(123,123)"/>
<path d="M0,0 L1,0 L1,1 L0,1 Z " fill="#202432" opacity="0.88235295" transform="translate(122,123)"/>
<path d="M0,0 L1,0 L1,1 L0,1 Z " fill="#282E3E" transform="translate(115,123)"/>
<path d="M0,0 L1,0 L1,1 L0,1 Z " fill="#32384D" transform="translate(113,123)"/>
<path d="M0,0 L1,0 L1,1 L0,1 Z " fill="#343B4F" transform="translate(112,123)"/>
<path d="M0,0 L1,0 L1,1 L0,1 Z " fill="#32384D" transform="translate(14,123)"/>
<path d="M0,0 L1,0 L1,1 L0,1 Z " fill="#292E3E" transform="translate(12,123)"/>
<path d="M0,0 L1,0 L1,1 L0,1 Z " fill="#222635" transform="translate(11,123)"/>
<path d="M0,0 L1,0 L1,1 L0,1 Z " fill="#1C222D" opacity="0.1764706" transform="translate(4,123)"/>
<path d="M0,0 L1,0 L1,1 L0,1 Z " fill="#182430" opacity="0.08235294" transform="translate(124,122)"/>
<path d="M0,0 L1,0 L1,1 L0,1 Z " fill="#212431" opacity="0.8784314" transform="translate(123,122)"/>
<path d="M0,0 L1,0 L1,1 L0,1 Z " fill="#222634" transform="translate(118,122)"/>
<path d="M0,0 L1,0 L1,1 L0,1 Z " fill="#2D3244" transform="translate(117,122)"/>
<path d="M0,0 L1,0 L1,1 L0,1 Z " fill="#343B51" transform="translate(116,122)"/>
<path d="M0,0 L1,0 L1,1 L0,1 Z " fill="#2D3345" transform="translate(10,122)"/>
<path d="M0,0 L1,0 L1,1 L0,1 Z " fill="#222734" transform="translate(9,122)"/>
<path d="M0,0 L1,0 L1,1 L0,1 Z " fill="#21212C" opacity="0.09019608" transform="translate(3,122)"/>
<path d="M0,0 L1,0 L1,1 L0,1 Z " fill="#202432" opacity="0.7607843" transform="translate(124,121)"/>
<path d="M0,0 L1,0 L1,1 L0,1 Z " fill="#262B3A" transform="translate(119,121)"/>
<path d="M0,0 L1,0 L1,1 L0,1 Z " fill="#343B50" transform="translate(118,121)"/>
<path d="M0,0 L1,0 L1,1 L0,1 Z " fill="#343B50" transform="translate(9,121)"/>
<path d="M0,0 L1,0 L1,1 L0,1 Z " fill="#262B3B" transform="translate(8,121)"/>
<path d="M0,0 L1,0 L1,1 L0,1 Z " fill="#202431" opacity="0.77254903" transform="translate(3,121)"/>
<path d="M0,0 L1,0 L1,1 L0,1 Z " fill="#202432" opacity="0.023529412" transform="translate(2,121)"/>
<path d="M0,0 L1,0 L1,1 L0,1 Z " fill="#212531" opacity="0.4862745" transform="translate(125,120)"/>
<path d="M0,0 L1,0 L1,1 L0,1 Z " fill="#292E3E" transform="translate(120,120)"/>
<path d="M0,0 L1,0 L1,1 L0,1 Z " fill="#292F3F" transform="translate(7,120)"/>
<path d="M0,0 L1,0 L1,1 L0,1 Z " fill="#202432" opacity="0.5019608" transform="translate(2,120)"/>
<path d="M0,0 L1,0 L1,1 L0,1 Z " fill="#182430" opacity="0.08235294" transform="translate(126,119)"/>
<path d="M0,0 L1,0 L1,1 L0,1 Z " fill="#202531" opacity="0.9490196" transform="translate(125,119)"/>
<path d="M0,0 L1,0 L1,1 L0,1 Z " fill="#262B3A" transform="translate(121,119)"/>
<path d="M0,0 L1,0 L1,1 L0,1 Z " fill="#262C3B" transform="translate(6,119)"/>
<path d="M0,0 L1,0 L1,1 L0,1 Z " fill="#20202A" opacity="0.09411765" transform="translate(1,119)"/>
<path d="M0,0 L1,0 L1,1 L0,1 Z " fill="#1F2531" opacity="0.5686275" transform="translate(126,118)"/>
<path d="M0,0 L1,0 L1,1 L0,1 Z " fill="#222634" transform="translate(122,118)"/>
<path d="M0,0 L1,0 L1,1 L0,1 Z " fill="#343B50" transform="translate(121,118)"/>
<path d="M0,0 L1,0 L1,1 L0,1 Z " fill="#343B50" transform="translate(6,118)"/>
<path d="M0,0 L1,0 L1,1 L0,1 Z " fill="#232635" transform="translate(5,118)"/>
<path d="M0,0 L1,0 L1,1 L0,1 Z " fill="#202331" opacity="0.5921569" transform="translate(1,118)"/>
<path d="M0,0 L1,0 L1,1 L0,1 Z " fill="#202431" opacity="0.92941177" transform="translate(126,117)"/>
<path d="M0,0 L1,0 L1,1 L0,1 Z " fill="#2C3243" transform="translate(122,117)"/>
<path d="M0,0 L1,0 L1,1 L0,1 Z " fill="#2D3345" transform="translate(5,117)"/>
<path d="M0,0 L1,0 L1,1 L0,1 Z " fill="#202531" opacity="0.9490196" transform="translate(1,117)"/>
<path d="M0,0 L1,0 L1,1 L0,1 Z " fill="#1F2232" opacity="0.25882354" transform="translate(127,116)"/>
<path d="M0,0 L1,0 L1,1 L0,1 Z " fill="#343C51" transform="translate(122,116)"/>
<path d="M0,0 L1,0 L1,1 L0,1 Z " fill="#353C51" transform="translate(5,116)"/>
<path d="M0,0 L1,0 L1,1 L0,1 Z " fill="#202432" opacity="0.2784314" transform="translate(0,116)"/>
<path d="M0,0 L1,0 L1,1 L0,1 Z " fill="#202331" opacity="0.5647059" transform="translate(127,115)"/>
<path d="M0,0 L1,0 L1,1 L0,1 Z " fill="#282E3E" transform="translate(123,115)"/>
<path d="M0,0 L1,0 L1,1 L0,1 Z " fill="#292E3E" transform="translate(4,115)"/>
<path d="M0,0 L1,0 L1,1 L0,1 Z " fill="#212430" opacity="0.5764706" transform="translate(0,115)"/>
<path d="M0,0 L1,0 L1,1 L0,1 Z " fill="#202531" opacity="0.8392157" transform="translate(127,113)"/>
<path d="M0,0 L1,0 L1,1 L0,1 Z " fill="#32384D" transform="translate(123,113)"/>
<path d="M0,0 L1,0 L1,1 L0,1 Z " fill="#32394D" transform="translate(4,113)"/>
<path d="M0,0 L1,0 L1,1 L0,1 Z " fill="#212431" opacity="0.8509804" transform="translate(0,113)"/>
<path d="M0,0 L1,0 L1,1 L0,1 Z " fill="#202531" opacity="0.9490196" transform="translate(127,112)"/>
<path d="M0,0 L1,0 L1,1 L0,1 Z " fill="#343B4F" transform="translate(123,112)"/>
<path d="M0,0 L1,0 L1,1 L0,1 Z " fill="#343B50" transform="translate(4,112)"/>
<path d="M0,0 L1,0 L1,1 L0,1 Z " fill="#202431" opacity="0.9529412" transform="translate(0,112)"/>
<path d="M0,0 L1,0 L1,1 L0,1 Z " fill="#363F55" transform="translate(72,108)"/>
<path d="M0,0 L1,0 L1,1 L0,1 Z " fill="#384B66" transform="translate(70,108)"/>
<path d="M0,0 L1,0 L1,1 L0,1 Z " fill="#3A526F" transform="translate(68,108)"/>
<path d="M0,0 L1,0 L1,1 L0,1 Z " fill="#3B5978" transform="translate(66,108)"/>
<path d="M0,0 L1,0 L1,1 L0,1 Z " fill="#3C5C7D" transform="translate(65,108)"/>
<path d="M0,0 L1,0 L1,1 L0,1 Z " fill="#3D6082" transform="translate(64,108)"/>
<path d="M0,0 L1,0 L1,1 L0,1 Z " fill="#3C5C7E" transform="translate(62,108)"/>
<path d="M0,0 L1,0 L1,1 L0,1 Z " fill="#3A5575" transform="translate(60,108)"/>
<path d="M0,0 L1,0 L1,1 L0,1 Z " fill="#394E6B" transform="translate(58,108)"/>
<path d="M0,0 L1,0 L1,1 L0,1 Z " fill="#384861" transform="translate(56,108)"/>
<path d="M0,0 L1,0 L1,1 L0,1 Z " fill="#363F56" transform="translate(55,108)"/>
<path d="M0,0 L1,0 L1,1 L0,1 Z " fill="#394F6B" transform="translate(78,107)"/>
<path d="M0,0 L1,0 L1,1 L0,1 Z " fill="#3E6488" transform="translate(76,107)"/>
<path d="M0,0 L1,0 L1,1 L0,1 Z " fill="#4279A5" transform="translate(74,107)"/>
<path d="M0,0 L1,0 L1,1 L0,1 Z " fill="#4483B3" transform="translate(73,107)"/>
<path d="M0,0 L1,0 L1,1 L0,1 Z " fill="#4279A5" transform="translate(53,107)"/>
<path d="M0,0 L1,0 L1,1 L0,1 Z " fill="#3E6489" transform="translate(51,107)"/>
<path d="M0,0 L1,0 L1,1 L0,1 Z " fill="#3A4F6C" transform="translate(49,107)"/>
<path d="M0,0 L1,0 L1,1 L0,1 Z " fill="#37425A" transform="translate(48,107)"/>
<path d="M0,0 L1,0 L1,1 L0,1 Z " fill="#37455F" transform="translate(83,106)"/>
<path d="M0,0 L1,0 L1,1 L0,1 Z " fill="#3F6B91" transform="translate(81,106)"/>
<path d="M0,0 L1,0 L1,1 L0,1 Z " fill="#437DAC" transform="translate(80,106)"/>
<path d="M0,0 L1,0 L1,1 L0,1 Z " fill="#447EAC" transform="translate(47,106)"/>
<path d="M0,0 L1,0 L1,1 L0,1 Z " fill="#3B5979" transform="translate(45,106)"/>
<path d="M0,0 L1,0 L1,1 L0,1 Z " fill="#37465F" transform="translate(44,106)"/>
<path d="M0,0 L1,0 L1,1 L0,1 Z " fill="#363F56" transform="translate(87,105)"/>
<path d="M0,0 L1,0 L1,1 L0,1 Z " fill="#416F98" transform="translate(85,105)"/>
<path d="M0,0 L1,0 L1,1 L0,1 Z " fill="#4483B2" transform="translate(84,105)"/>
<path d="M0,0 L1,0 L1,1 L0,1 Z " fill="#4582B3" transform="translate(43,105)"/>
<path d="M0,0 L1,0 L1,1 L0,1 Z " fill="#3B5978" transform="translate(41,105)"/>
<path d="M0,0 L1,0 L1,1 L0,1 Z " fill="#364056" transform="translate(40,105)"/>
<path d="M0,0 L1,0 L1,1 L0,1 Z " fill="#353D52" transform="translate(90,104)"/>
<path d="M0,0 L1,0 L1,1 L0,1 Z " fill="#3F6D94" transform="translate(88,104)"/>
<path d="M0,0 L1,0 L1,1 L0,1 Z " fill="#4687B8" transform="translate(87,104)"/>
<path d="M0,0 L1,0 L1,1 L0,1 Z " fill="#406E96" transform="translate(39,104)"/>
<path d="M0,0 L1,0 L1,1 L0,1 Z " fill="#3A506D" transform="translate(38,104)"/>
<path d="M0,0 L1,0 L1,1 L0,1 Z " fill="#353D52" transform="translate(37,104)"/>
<path d="M0,0 L1,0 L1,1 L0,1 Z " fill="#3E658A" transform="translate(91,103)"/>
<path d="M0,0 L1,0 L1,1 L0,1 Z " fill="#4482B1" transform="translate(90,103)"/>
<path d="M0,0 L1,0 L1,1 L0,1 Z " fill="#3E658A" transform="translate(36,103)"/>
<path d="M0,0 L1,0 L1,1 L0,1 Z " fill="#384760" transform="translate(35,103)"/>
<path d="M0,0 L1,0 L1,1 L0,1 Z " fill="#37465F" transform="translate(94,102)"/>
<path d="M0,0 L1,0 L1,1 L0,1 Z " fill="#406D94" transform="translate(93,102)"/>
<path d="M0,0 L1,0 L1,1 L0,1 Z " fill="#468ABD" transform="translate(92,102)"/>
<path d="M0,0 L1,0 L1,1 L0,1 Z " fill="#406C95" transform="translate(34,102)"/>
<path d="M0,0 L1,0 L1,1 L0,1 Z " fill="#38475F" transform="translate(33,102)"/>
<path d="M0,0 L1,0 L1,1 L0,1 Z " fill="#364056" transform="translate(96,101)"/>
<path d="M0,0 L1,0 L1,1 L0,1 Z " fill="#3E688C" transform="translate(95,101)"/>
<path d="M0,0 L1,0 L1,1 L0,1 Z " fill="#468ABC" transform="translate(94,101)"/>
<path d="M0,0 L1,0 L1,1 L0,1 Z " fill="#3E678D" transform="translate(32,101)"/>
<path d="M0,0 L1,0 L1,1 L0,1 Z " fill="#364056" transform="translate(31,101)"/>
<path d="M0,0 L1,0 L1,1 L0,1 Z " fill="#3A5371" transform="translate(97,100)"/>
<path d="M0,0 L1,0 L1,1 L0,1 Z " fill="#4482B1" transform="translate(96,100)"/>
<path d="M0,0 L1,0 L1,1 L0,1 Z " fill="#4482B1" transform="translate(31,100)"/>
<path d="M0,0 L1,0 L1,1 L0,1 Z " fill="#3A5471" transform="translate(30,100)"/>
<path d="M0,0 L1,0 L1,1 L0,1 Z " fill="#353D53" transform="translate(99,99)"/>
<path d="M0,0 L1,0 L1,1 L0,1 Z " fill="#3E668A" transform="translate(98,99)"/>
<path d="M0,0 L1,0 L1,1 L0,1 Z " fill="#468BBE" transform="translate(97,99)"/>
<path d="M0,0 L1,0 L1,1 L0,1 Z " fill="#3E668A" transform="translate(29,99)"/>
<path d="M0,0 L1,0 L1,1 L0,1 Z " fill="#353D53" transform="translate(28,99)"/>
<path d="M0,0 L1,0 L1,1 L0,1 Z " fill="#4275A0" transform="translate(99,98)"/>
<path d="M0,0 L1,0 L1,1 L0,1 Z " fill="#4275A0" transform="translate(28,98)"/>
<path d="M0,0 L1,0 L1,1 L0,1 Z " fill="#4276A2" transform="translate(100,97)"/>
<path d="M0,0 L1,0 L1,1 L0,1 Z " fill="#4277A2" transform="translate(27,97)"/>
<path d="M0,0 L1,0 L1,1 L0,1 Z " fill="#353D52" transform="translate(102,96)"/>
<path d="M0,0 L1,0 L1,1 L0,1 Z " fill="#42749F" transform="translate(101,96)"/>
<path d="M0,0 L1,0 L1,1 L0,1 Z " fill="#41739D" transform="translate(26,96)"/>
<path d="M0,0 L1,0 L1,1 L0,1 Z " fill="#3D6184" transform="translate(102,95)"/>
<path d="M0,0 L1,0 L1,1 L0,1 Z " fill="#3D6082" transform="translate(25,95)"/>
<path d="M0,0 L1,0 L1,1 L0,1 Z " fill="#384964" transform="translate(103,94)"/>
<path d="M0,0 L1,0 L1,1 L0,1 Z " fill="#468ABC" transform="translate(102,94)"/>
<path d="M0,0 L1,0 L1,1 L0,1 Z " fill="#5393C3" transform="translate(75,94)"/>
<path d="M0,0 L1,0 L1,1 L0,1 Z " fill="#69A1CB" transform="translate(73,94)"/>
<path d="M0,0 L1,0 L1,1 L0,1 Z " fill="#4C8FC1" transform="translate(72,94)"/>
<path d="M0,0 L1,0 L1,1 L0,1 Z " fill="#4D90C1" transform="translate(55,94)"/>
<path d="M0,0 L1,0 L1,1 L0,1 Z " fill="#69A1CB" transform="translate(54,94)"/>
<path d="M0,0 L1,0 L1,1 L0,1 Z " fill="#5293C3" transform="translate(52,94)"/>
<path d="M0,0 L1,0 L1,1 L0,1 Z " fill="#4689BC" transform="translate(25,94)"/>
<path d="M0,0 L1,0 L1,1 L0,1 Z " fill="#374862" transform="translate(24,94)"/>
<path d="M0,0 L1,0 L1,1 L0,1 Z " fill="#41719A" transform="translate(103,93)"/>
<path d="M0,0 L1,0 L1,1 L0,1 Z " fill="#68A1CA" transform="translate(88,93)"/>
<path d="M0,0 L1,0 L1,1 L0,1 Z " fill="#82B1D3" transform="translate(86,93)"/>
<path d="M0,0 L1,0 L1,1 L0,1 Z " fill="#9BC1DC" transform="translate(84,93)"/>
<path d="M0,0 L1,0 L1,1 L0,1 Z " fill="#B4D0E5" transform="translate(82,93)"/>
<path d="M0,0 L1,0 L1,1 L0,1 Z " fill="#CDE0EE" transform="translate(80,93)"/>
<path d="M0,0 L1,0 L1,1 L0,1 Z " fill="#E6F0F7" transform="translate(78,93)"/>
<path d="M0,0 L1,0 L1,1 L0,1 Z " fill="#F2F7FB" transform="translate(77,93)"/>
<path d="M0,0 L1,0 L1,1 L0,1 Z " fill="#FEFFFF" transform="translate(76,93)"/>
<path d="M0,0 L1,0 L1,1 L0,1 Z " fill="#EFF5FA" transform="translate(72,93)"/>
<path d="M0,0 L1,0 L1,1 L0,1 Z " fill="#5896C5" transform="translate(71,93)"/>
<path d="M0,0 L1,0 L1,1 L0,1 Z " fill="#5C99C6" transform="translate(56,93)"/>
<path d="M0,0 L1,0 L1,1 L0,1 Z " fill="#F3F8FB" transform="translate(55,93)"/>
<path d="M0,0 L1,0 L1,1 L0,1 Z " fill="#FDFEFF" transform="translate(51,93)"/>
<path d="M0,0 L1,0 L1,1 L0,1 Z " fill="#E5EFF6" transform="translate(49,93)"/>
<path d="M0,0 L1,0 L1,1 L0,1 Z " fill="#CCDFED" transform="translate(47,93)"/>
<path d="M0,0 L1,0 L1,1 L0,1 Z " fill="#B4D0E5" transform="translate(45,93)"/>
<path d="M0,0 L1,0 L1,1 L0,1 Z " fill="#9AC0DC" transform="translate(43,93)"/>
<path d="M0,0 L1,0 L1,1 L0,1 Z " fill="#81B0D3" transform="translate(41,93)"/>
<path d="M0,0 L1,0 L1,1 L0,1 Z " fill="#68A0CA" transform="translate(39,93)"/>
<path d="M0,0 L1,0 L1,1 L0,1 Z " fill="#5796C4" transform="translate(38,93)"/>
<path d="M0,0 L1,0 L1,1 L0,1 Z " fill="#406F98" transform="translate(24,93)"/>
<path d="M0,0 L1,0 L1,1 L0,1 Z " fill="#468BBE" transform="translate(103,92)"/>
<path d="M0,0 L1,0 L1,1 L0,1 Z " fill="#B7D2E6" transform="translate(90,92)"/>
<path d="M0,0 L1,0 L1,1 L0,1 Z " fill="#8FB9D8" transform="translate(71,92)"/>
<path d="M0,0 L1,0 L1,1 L0,1 Z " fill="#97BEDB" transform="translate(56,92)"/>
<path d="M0,0 L1,0 L1,1 L0,1 Z " fill="#FEFFFF" transform="translate(38,92)"/>
<path d="M0,0 L1,0 L1,1 L0,1 Z " fill="#AFCDE3" transform="translate(37,92)"/>
<path d="M0,0 L1,0 L1,1 L0,1 Z " fill="#468ABD" transform="translate(24,92)"/>
<path d="M0,0 L1,0 L1,1 L0,1 Z " fill="#3D6286" transform="translate(104,91)"/>
<path d="M0,0 L1,0 L1,1 L0,1 Z " fill="#5997C5" transform="translate(91,91)"/>
<path d="M0,0 L1,0 L1,1 L0,1 Z " fill="#5293C3" transform="translate(36,91)"/>
<path d="M0,0 L1,0 L1,1 L0,1 Z " fill="#3D6082" transform="translate(23,91)"/>
<path d="M0,0 L1,0 L1,1 L0,1 Z " fill="#4279A5" transform="translate(104,90)"/>
<path d="M0,0 L1,0 L1,1 L0,1 Z " fill="#F5F9FC" transform="translate(85,90)"/>
<path d="M0,0 L1,0 L1,1 L0,1 Z " fill="#D9E7F2" transform="translate(83,90)"/>
<path d="M0,0 L1,0 L1,1 L0,1 Z " fill="#BDD6E8" transform="translate(81,90)"/>
<path d="M0,0 L1,0 L1,1 L0,1 Z " fill="#A1C4DE" transform="translate(79,90)"/>
<path d="M0,0 L1,0 L1,1 L0,1 Z " fill="#85B2D4" transform="translate(77,90)"/>
<path d="M0,0 L1,0 L1,1 L0,1 Z " fill="#68A1CA" transform="translate(75,90)"/>
<path d="M0,0 L1,0 L1,1 L0,1 Z " fill="#AACAE1" transform="translate(74,90)"/>
<path d="M0,0 L1,0 L1,1 L0,1 Z " fill="#C8DDEC" transform="translate(71,90)"/>
<path d="M0,0 L1,0 L1,1 L0,1 Z " fill="#D0E2EF" transform="translate(56,90)"/>
<path d="M0,0 L1,0 L1,1 L0,1 Z " fill="#A2C5DF" transform="translate(53,90)"/>
<path d="M0,0 L1,0 L1,1 L0,1 Z " fill="#77AAD0" transform="translate(51,90)"/>
<path d="M0,0 L1,0 L1,1 L0,1 Z " fill="#93BCD9" transform="translate(49,90)"/>
<path d="M0,0 L1,0 L1,1 L0,1 Z " fill="#AFCDE3" transform="translate(47,90)"/>
<path d="M0,0 L1,0 L1,1 L0,1 Z " fill="#CBDFED" transform="translate(45,90)"/>
<path d="M0,0 L1,0 L1,1 L0,1 Z " fill="#E8F1F7" transform="translate(43,90)"/>
<path d="M0,0 L1,0 L1,1 L0,1 Z " fill="#F6FAFC" transform="translate(42,90)"/>
<path d="M0,0 L1,0 L1,1 L0,1 Z " fill="#4176A1" transform="translate(23,90)"/>
<path d="M0,0 L1,0 L1,1 L0,1 Z " fill="#4587B9" transform="translate(104,89)"/>
<path d="M0,0 L1,0 L1,1 L0,1 Z " fill="#75A9CF" transform="translate(91,89)"/>
<path d="M0,0 L1,0 L1,1 L0,1 Z " fill="#6BA2CB" transform="translate(87,89)"/>
<path d="M0,0 L1,0 L1,1 L0,1 Z " fill="#4B8EC0" transform="translate(86,89)"/>
<path d="M0,0 L1,0 L1,1 L0,1 Z " fill="#E5EFF6" transform="translate(71,89)"/>
<path d="M0,0 L1,0 L1,1 L0,1 Z " fill="#EDF4F9" transform="translate(56,89)"/>
<path d="M0,0 L1,0 L1,1 L0,1 Z " fill="#73A7CE" transform="translate(40,89)"/>
<path d="M0,0 L1,0 L1,1 L0,1 Z " fill="#6EA4CC" transform="translate(36,89)"/>
<path d="M0,0 L1,0 L1,1 L0,1 Z " fill="#4583B5" transform="translate(23,89)"/>
<path d="M0,0 L1,0 L1,1 L0,1 Z " fill="#364056" transform="translate(105,88)"/>
<path d="M0,0 L1,0 L1,1 L0,1 Z " fill="#5192C2" transform="translate(87,88)"/>
<path d="M0,0 L1,0 L1,1 L0,1 Z " fill="#6EA4CC" transform="translate(74,88)"/>
<path d="M0,0 L1,0 L1,1 L0,1 Z " fill="#FDFEFE" transform="translate(71,88)"/>
<path d="M0,0 L1,0 L1,1 L0,1 Z " fill="#669FC9" transform="translate(53,88)"/>
<path d="M0,0 L1,0 L1,1 L0,1 Z " fill="#5997C5" transform="translate(40,88)"/>
<path d="M0,0 L1,0 L1,1 L0,1 Z " fill="#468ABD" transform="translate(23,88)"/>
<path d="M0,0 L1,0 L1,1 L0,1 Z " fill="#353D53" transform="translate(22,88)"/>
<path d="M0,0 L1,0 L1,1 L0,1 Z " fill="#384760" transform="translate(105,87)"/>
<path d="M0,0 L1,0 L1,1 L0,1 Z " fill="#90BAD8" transform="translate(91,87)"/>
<path d="M0,0 L1,0 L1,1 L0,1 Z " fill="#FDFEFF" transform="translate(88,87)"/>
<path d="M0,0 L1,0 L1,1 L0,1 Z " fill="#5595C4" transform="translate(74,87)"/>
<path d="M0,0 L1,0 L1,1 L0,1 Z " fill="#659FC9" transform="translate(70,87)"/>
<path d="M0,0 L1,0 L1,1 L0,1 Z " fill="#6DA4CC" transform="translate(57,87)"/>
<path d="M0,0 L1,0 L1,1 L0,1 Z " fill="#4E90C1" transform="translate(53,87)"/>
<path d="M0,0 L1,0 L1,1 L0,1 Z " fill="#4E90C1" transform="translate(40,87)"/>
<path d="M0,0 L1,0 L1,1 L0,1 Z " fill="#88B5D6" transform="translate(36,87)"/>
<path d="M0,0 L1,0 L1,1 L0,1 Z " fill="#364159" transform="translate(22,87)"/>
<path d="M0,0 L1,0 L1,1 L0,1 Z " fill="#F4F8FB" transform="translate(88,86)"/>
<path d="M0,0 L1,0 L1,1 L0,1 Z " fill="#F6FAFC" transform="translate(73,86)"/>
<path d="M0,0 L1,0 L1,1 L0,1 Z " fill="#C3D9EA" transform="translate(70,86)"/>
<path d="M0,0 L1,0 L1,1 L0,1 Z " fill="#C6DCEB" transform="translate(57,86)"/>
<path d="M0,0 L1,0 L1,1 L0,1 Z " fill="#EDF4F9" transform="translate(54,86)"/>
<path d="M0,0 L1,0 L1,1 L0,1 Z " fill="#FCFDFE" transform="translate(39,86)"/>
<path d="M0,0 L1,0 L1,1 L0,1 Z " fill="#AACAE2" transform="translate(91,85)"/>
<path d="M0,0 L1,0 L1,1 L0,1 Z " fill="#A2C5DF" transform="translate(36,85)"/>
<path d="M0,0 L1,0 L1,1 L0,1 Z " fill="#4D90C1" transform="translate(100,84)"/>
<path d="M0,0 L1,0 L1,1 L0,1 Z " fill="#6EA4CC" transform="translate(98,84)"/>
<path d="M0,0 L1,0 L1,1 L0,1 Z " fill="#8EB8D8" transform="translate(96,84)"/>
<path d="M0,0 L1,0 L1,1 L0,1 Z " fill="#AFCDE3" transform="translate(94,84)"/>
<path d="M0,0 L1,0 L1,1 L0,1 Z " fill="#D0E2EF" transform="translate(92,84)"/>
<path d="M0,0 L1,0 L1,1 L0,1 Z " fill="#F0F6FA" transform="translate(91,84)"/>
<path d="M0,0 L1,0 L1,1 L0,1 Z " fill="#DEEAF4" transform="translate(88,84)"/>
<path d="M0,0 L1,0 L1,1 L0,1 Z " fill="#B2CFE4" transform="translate(73,84)"/>
<path d="M0,0 L1,0 L1,1 L0,1 Z " fill="#FFFFFF" transform="translate(55,84)"/>
<path d="M0,0 L1,0 L1,1 L0,1 Z " fill="#AACAE2" transform="translate(54,84)"/>
<path d="M0,0 L1,0 L1,1 L0,1 Z " fill="#E5EFF6" transform="translate(39,84)"/>
<path d="M0,0 L1,0 L1,1 L0,1 Z " fill="#EFF5FA" transform="translate(36,84)"/>
<path d="M0,0 L1,0 L1,1 L0,1 Z " fill="#BED7E9" transform="translate(34,84)"/>
<path d="M0,0 L1,0 L1,1 L0,1 Z " fill="#9EC2DD" transform="translate(32,84)"/>
<path d="M0,0 L1,0 L1,1 L0,1 Z " fill="#7DADD2" transform="translate(30,84)"/>
<path d="M0,0 L1,0 L1,1 L0,1 Z " fill="#5C99C6" transform="translate(28,84)"/>
<path d="M0,0 L1,0 L1,1 L0,1 Z " fill="#4C8FC1" transform="translate(27,84)"/>
<path d="M0,0 L1,0 L1,1 L0,1 Z " fill="#475167" transform="translate(105,83)"/>
<path d="M0,0 L1,0 L1,1 L0,1 Z " fill="#BED4E5" transform="translate(104,83)"/>
<path d="M0,0 L1,0 L1,1 L0,1 Z " fill="#E5EFF6" transform="translate(102,83)"/>
<path d="M0,0 L1,0 L1,1 L0,1 Z " fill="#F5F9FC" transform="translate(101,83)"/>
<path d="M0,0 L1,0 L1,1 L0,1 Z " fill="#5494C3" transform="translate(73,83)"/>
<path d="M0,0 L1,0 L1,1 L0,1 Z " fill="#B7D2E6" transform="translate(72,83)"/>
<path d="M0,0 L1,0 L1,1 L0,1 Z " fill="#B2CFE4" transform="translate(55,83)"/>
<path d="M0,0 L1,0 L1,1 L0,1 Z " fill="#5192C2" transform="translate(54,83)"/>
<path d="M0,0 L1,0 L1,1 L0,1 Z " fill="#E4EEF6" transform="translate(25,83)"/>
<path d="M0,0 L1,0 L1,1 L0,1 Z " fill="#BBD1E3" transform="translate(23,83)"/>
<path d="M0,0 L1,0 L1,1 L0,1 Z " fill="#40485C" transform="translate(22,83)"/>
<path d="M0,0 L1,0 L1,1 L0,1 Z " fill="#52586A" transform="translate(105,82)"/>
<path d="M0,0 L1,0 L1,1 L0,1 Z " fill="#FFFFFF" transform="translate(89,82)"/>
<path d="M0,0 L1,0 L1,1 L0,1 Z " fill="#92BBD9" transform="translate(88,82)"/>
<path d="M0,0 L1,0 L1,1 L0,1 Z " fill="#9AC0DC" transform="translate(39,82)"/>
<path d="M0,0 L1,0 L1,1 L0,1 Z " fill="#454C5F" transform="translate(22,82)"/>
<path d="M0,0 L1,0 L1,1 L0,1 Z " fill="#FEFFFF" transform="translate(97,81)"/>
<path d="M0,0 L1,0 L1,1 L0,1 Z " fill="#F0F6FA" transform="translate(96,81)"/>
<path d="M0,0 L1,0 L1,1 L0,1 Z " fill="#CEE0EE" transform="translate(94,81)"/>
<path d="M0,0 L1,0 L1,1 L0,1 Z " fill="#ACCBE2" transform="translate(92,81)"/>
<path d="M0,0 L1,0 L1,1 L0,1 Z " fill="#8AB6D6" transform="translate(90,81)"/>
<path d="M0,0 L1,0 L1,1 L0,1 Z " fill="#67A0CA" transform="translate(89,81)"/>
<path d="M0,0 L1,0 L1,1 L0,1 Z " fill="#69A1CB" transform="translate(38,81)"/>
<path d="M0,0 L1,0 L1,1 L0,1 Z " fill="#9CC1DC" transform="translate(36,81)"/>
<path d="M0,0 L1,0 L1,1 L0,1 Z " fill="#BED6E8" transform="translate(34,81)"/>
<path d="M0,0 L1,0 L1,1 L0,1 Z " fill="#E0ECF4" transform="translate(32,81)"/>
<path d="M0,0 L1,0 L1,1 L0,1 Z " fill="#F1F6FA" transform="translate(31,81)"/>
<path d="M0,0 L1,0 L1,1 L0,1 Z " fill="#FEFFFF" transform="translate(30,81)"/>
<path d="M0,0 L1,0 L1,1 L0,1 Z " fill="#495266" transform="translate(105,80)"/>
<path d="M0,0 L1,0 L1,1 L0,1 Z " fill="#8FAEC8" transform="translate(103,80)"/>
<path d="M0,0 L1,0 L1,1 L0,1 Z " fill="#78A2C5" transform="translate(101,80)"/>
<path d="M0,0 L1,0 L1,1 L0,1 Z " fill="#6098C2" transform="translate(99,80)"/>
<path d="M0,0 L1,0 L1,1 L0,1 Z " fill="#5392C0" transform="translate(98,80)"/>
<path d="M0,0 L1,0 L1,1 L0,1 Z " fill="#488CC0" transform="translate(97,80)"/>
<path d="M0,0 L1,0 L1,1 L0,1 Z " fill="#5592C1" transform="translate(29,80)"/>
<path d="M0,0 L1,0 L1,1 L0,1 Z " fill="#6D9DC4" transform="translate(27,80)"/>
<path d="M0,0 L1,0 L1,1 L0,1 Z " fill="#84A9C6" transform="translate(25,80)"/>
<path d="M0,0 L1,0 L1,1 L0,1 Z " fill="#9BB5CA" transform="translate(23,80)"/>
<path d="M0,0 L1,0 L1,1 L0,1 Z " fill="#40485D" transform="translate(22,80)"/>
<path d="M0,0 L1,0 L1,1 L0,1 Z " fill="#5F9BC7" transform="translate(65,75)"/>
<path d="M0,0 L1,0 L1,1 L0,1 Z " fill="#5D9AC6" transform="translate(62,75)"/>
<path d="M0,0 L1,0 L1,1 L0,1 Z " fill="#4D90C1" transform="translate(88,74)"/>
<path d="M0,0 L1,0 L1,1 L0,1 Z " fill="#7CADD1" transform="translate(87,74)"/>
<path d="M0,0 L1,0 L1,1 L0,1 Z " fill="#A4C6E0" transform="translate(85,74)"/>
<path d="M0,0 L1,0 L1,1 L0,1 Z " fill="#78ABD0" transform="translate(83,74)"/>
<path d="M0,0 L1,0 L1,1 L0,1 Z " fill="#4C8FC0" transform="translate(82,74)"/>
<path d="M0,0 L1,0 L1,1 L0,1 Z " fill="#82B1D4" transform="translate(66,74)"/>
<path d="M0,0 L1,0 L1,1 L0,1 Z " fill="#FCFDFE" transform="translate(65,74)"/>
<path d="M0,0 L1,0 L1,1 L0,1 Z " fill="#FAFCFE" transform="translate(62,74)"/>
<path d="M0,0 L1,0 L1,1 L0,1 Z " fill="#7CADD1" transform="translate(61,74)"/>
<path d="M0,0 L1,0 L1,1 L0,1 Z " fill="#4C8FC1" transform="translate(45,74)"/>
<path d="M0,0 L1,0 L1,1 L0,1 Z " fill="#7BADD1" transform="translate(44,74)"/>
<path d="M0,0 L1,0 L1,1 L0,1 Z " fill="#A4C6E0" transform="translate(42,74)"/>
<path d="M0,0 L1,0 L1,1 L0,1 Z " fill="#7AACD1" transform="translate(40,74)"/>
<path d="M0,0 L1,0 L1,1 L0,1 Z " fill="#4C8FC1" transform="translate(39,74)"/>
<path d="M0,0 L1,0 L1,1 L0,1 Z " fill="#5796C4" transform="translate(90,73)"/>
<path d="M0,0 L1,0 L1,1 L0,1 Z " fill="#B2CFE4" transform="translate(89,73)"/>
<path d="M0,0 L1,0 L1,1 L0,1 Z " fill="#F8FBFD" transform="translate(88,73)"/>
<path d="M0,0 L1,0 L1,1 L0,1 Z " fill="#F5F9FC" transform="translate(82,73)"/>
<path d="M0,0 L1,0 L1,1 L0,1 Z " fill="#AACAE2" transform="translate(81,73)"/>
<path d="M0,0 L1,0 L1,1 L0,1 Z " fill="#5494C3" transform="translate(80,73)"/>
<path d="M0,0 L1,0 L1,1 L0,1 Z " fill="#DEEBF4" transform="translate(66,73)"/>
<path d="M0,0 L1,0 L1,1 L0,1 Z " fill="#D7E6F1" transform="translate(61,73)"/>
<path d="M0,0 L1,0 L1,1 L0,1 Z " fill="#5695C4" transform="translate(47,73)"/>
<path d="M0,0 L1,0 L1,1 L0,1 Z " fill="#AFCDE3" transform="translate(46,73)"/>
<path d="M0,0 L1,0 L1,1 L0,1 Z " fill="#F7FAFC" transform="translate(45,73)"/>
<path d="M0,0 L1,0 L1,1 L0,1 Z " fill="#F6FAFC" transform="translate(39,73)"/>
<path d="M0,0 L1,0 L1,1 L0,1 Z " fill="#ADCCE3" transform="translate(38,73)"/>
<path d="M0,0 L1,0 L1,1 L0,1 Z " fill="#5494C3" transform="translate(37,73)"/>
<path d="M0,0 L1,0 L1,1 L0,1 Z " fill="#77AAD0" transform="translate(91,72)"/>
<path d="M0,0 L1,0 L1,1 L0,1 Z " fill="#F2F7FB" transform="translate(90,72)"/>
<path d="M0,0 L1,0 L1,1 L0,1 Z " fill="#F4F4F4" transform="translate(84,72)"/>
<path d="M0,0 L1,0 L1,1 L0,1 Z " fill="#EDF4F9" transform="translate(80,72)"/>
<path d="M0,0 L1,0 L1,1 L0,1 Z " fill="#6EA4CC" transform="translate(79,72)"/>
<path d="M0,0 L1,0 L1,1 L0,1 Z " fill="#F6FAFC" transform="translate(66,72)"/>
<path d="M0,0 L1,0 L1,1 L0,1 Z " fill="#EDF4F9" transform="translate(61,72)"/>
<path d="M0,0 L1,0 L1,1 L0,1 Z " fill="#74A8CE" transform="translate(48,72)"/>
<path d="M0,0 L1,0 L1,1 L0,1 Z " fill="#F1F6FA" transform="translate(47,72)"/>
<path d="M0,0 L1,0 L1,1 L0,1 Z " fill="#F4F4F4" transform="translate(43,72)"/>
<path d="M0,0 L1,0 L1,1 L0,1 Z " fill="#FDFDFD" transform="translate(42,72)"/>
<path d="M0,0 L1,0 L1,1 L0,1 Z " fill="#F0F6FA" transform="translate(37,72)"/>
<path d="M0,0 L1,0 L1,1 L0,1 Z " fill="#72A7CE" transform="translate(36,72)"/>
<path d="M0,0 L1,0 L1,1 L0,1 Z " fill="#79ABD0" transform="translate(92,71)"/>
<path d="M0,0 L1,0 L1,1 L0,1 Z " fill="#FDFEFE" transform="translate(91,71)"/>
<path d="M0,0 L1,0 L1,1 L0,1 Z " fill="#FEFEFE" transform="translate(88,71)"/>
<path d="M0,0 L1,0 L1,1 L0,1 Z " fill="#BCBBBC" transform="translate(87,71)"/>
<path d="M0,0 L1,0 L1,1 L0,1 Z " fill="#707071" transform="translate(86,71)"/>
<path d="M0,0 L1,0 L1,1 L0,1 Z " fill="#4A494B" transform="translate(85,71)"/>
<path d="M0,0 L1,0 L1,1 L0,1 Z " fill="#888889" transform="translate(82,71)"/>
<path d="M0,0 L1,0 L1,1 L0,1 Z " fill="#EBEBEB" transform="translate(81,71)"/>
<path d="M0,0 L1,0 L1,1 L0,1 Z " fill="#FAFCFD" transform="translate(79,71)"/>
<path d="M0,0 L1,0 L1,1 L0,1 Z " fill="#6FA5CD" transform="translate(78,71)"/>
<path d="M0,0 L1,0 L1,1 L0,1 Z " fill="#76A9CF" transform="translate(49,71)"/>
<path d="M0,0 L1,0 L1,1 L0,1 Z " fill="#FCFDFE" transform="translate(48,71)"/>
<path d="M0,0 L1,0 L1,1 L0,1 Z " fill="#E6E6E6" transform="translate(46,71)"/>
<path d="M0,0 L1,0 L1,1 L0,1 Z " fill="#848485" transform="translate(45,71)"/>
<path d="M0,0 L1,0 L1,1 L0,1 Z " fill="#59585A" transform="translate(44,71)"/>
<path d="M0,0 L1,0 L1,1 L0,1 Z " fill="#727172" transform="translate(41,71)"/>
<path d="M0,0 L1,0 L1,1 L0,1 Z " fill="#C2C1C2" transform="translate(40,71)"/>
<path d="M0,0 L1,0 L1,1 L0,1 Z " fill="#FAFCFE" transform="translate(36,71)"/>
<path d="M0,0 L1,0 L1,1 L0,1 Z " fill="#73A8CE" transform="translate(35,71)"/>
<path d="M0,0 L1,0 L1,1 L0,1 Z " fill="#5B99C6" transform="translate(93,70)"/>
<path d="M0,0 L1,0 L1,1 L0,1 Z " fill="#F3F8FB" transform="translate(92,70)"/>
<path d="M0,0 L1,0 L1,1 L0,1 Z " fill="#F6F6F6" transform="translate(89,70)"/>
<path d="M0,0 L1,0 L1,1 L0,1 Z " fill="#7D7C7E" transform="translate(88,70)"/>
<path d="M0,0 L1,0 L1,1 L0,1 Z " fill="#4C4B4D" transform="translate(81,70)"/>
<path d="M0,0 L1,0 L1,1 L0,1 Z " fill="#C1C1C1" transform="translate(80,70)"/>
<path d="M0,0 L1,0 L1,1 L0,1 Z " fill="#EEF5F9" transform="translate(78,70)"/>
<path d="M0,0 L1,0 L1,1 L0,1 Z " fill="#5494C3" transform="translate(77,70)"/>
<path d="M0,0 L1,0 L1,1 L0,1 Z " fill="#5997C5" transform="translate(50,70)"/>
<path d="M0,0 L1,0 L1,1 L0,1 Z " fill="#F2F7FB" transform="translate(49,70)"/>
<path d="M0,0 L1,0 L1,1 L0,1 Z " fill="#B9B9BA" transform="translate(47,70)"/>
<path d="M0,0 L1,0 L1,1 L0,1 Z " fill="#49484A" transform="translate(46,70)"/>
<path d="M0,0 L1,0 L1,1 L0,1 Z " fill="#848384" transform="translate(39,70)"/>
<path d="M0,0 L1,0 L1,1 L0,1 Z " fill="#FAFAFA" transform="translate(38,70)"/>
<path d="M0,0 L1,0 L1,1 L0,1 Z " fill="#F0F6FA" transform="translate(35,70)"/>
<path d="M0,0 L1,0 L1,1 L0,1 Z " fill="#5796C4" transform="translate(34,70)"/>
<path d="M0,0 L1,0 L1,1 L0,1 Z " fill="#B9D4E7" transform="translate(93,69)"/>
<path d="M0,0 L1,0 L1,1 L0,1 Z " fill="#909091" transform="translate(89,69)"/>
<path d="M0,0 L1,0 L1,1 L0,1 Z " fill="#464647" transform="translate(80,69)"/>
<path d="M0,0 L1,0 L1,1 L0,1 Z " fill="#E2E2E2" transform="translate(79,69)"/>
<path d="M0,0 L1,0 L1,1 L0,1 Z " fill="#ADCCE3" transform="translate(77,69)"/>
<path d="M0,0 L1,0 L1,1 L0,1 Z " fill="#B6D1E6" transform="translate(50,69)"/>
<path d="M0,0 L1,0 L1,1 L0,1 Z " fill="#DBDBDB" transform="translate(48,69)"/>
<path d="M0,0 L1,0 L1,1 L0,1 Z " fill="#434344" transform="translate(47,69)"/>
<path d="M0,0 L1,0 L1,1 L0,1 Z " fill="#9A9A9B" transform="translate(38,69)"/>
<path d="M0,0 L1,0 L1,1 L0,1 Z " fill="#B3CFE5" transform="translate(34,69)"/>
<path d="M0,0 L1,0 L1,1 L0,1 Z " fill="#5494C3" transform="translate(94,68)"/>
<path d="M0,0 L1,0 L1,1 L0,1 Z " fill="#FDFEFE" transform="translate(93,68)"/>
<path d="M0,0 L1,0 L1,1 L0,1 Z " fill="#D5D5D5" transform="translate(90,68)"/>
<path d="M0,0 L1,0 L1,1 L0,1 Z " fill="#6F6E70" transform="translate(79,68)"/>
<path d="M0,0 L1,0 L1,1 L0,1 Z " fill="#F7FAFC" transform="translate(77,68)"/>
<path d="M0,0 L1,0 L1,1 L0,1 Z " fill="#4D90C1" transform="translate(76,68)"/>
<path d="M0,0 L1,0 L1,1 L0,1 Z " fill="#5293C3" transform="translate(51,68)"/>
<path d="M0,0 L1,0 L1,1 L0,1 Z " fill="#FCFDFE" transform="translate(50,68)"/>
<path d="M0,0 L1,0 L1,1 L0,1 Z " fill="#676667" transform="translate(48,68)"/>
<path d="M0,0 L1,0 L1,1 L0,1 Z " fill="#424143" transform="translate(38,68)"/>
<path d="M0,0 L1,0 L1,1 L0,1 Z " fill="#DDDDDD" transform="translate(37,68)"/>
<path d="M0,0 L1,0 L1,1 L0,1 Z " fill="#FAFCFD" transform="translate(34,68)"/>
<path d="M0,0 L1,0 L1,1 L0,1 Z " fill="#4F91C2" transform="translate(33,68)"/>
<path d="M0,0 L1,0 L1,1 L0,1 Z " fill="#89B5D6" transform="translate(94,67)"/>
<path d="M0,0 L1,0 L1,1 L0,1 Z " fill="#9F9FA0" transform="translate(90,67)"/>
<path d="M0,0 L1,0 L1,1 L0,1 Z " fill="#F5F5F5" transform="translate(78,67)"/>
<path d="M0,0 L1,0 L1,1 L0,1 Z " fill="#7CADD1" transform="translate(76,67)"/>
<path d="M0,0 L1,0 L1,1 L0,1 Z " fill="#86B3D5" transform="translate(51,67)"/>
<path d="M0,0 L1,0 L1,1 L0,1 Z " fill="#EFEFEF" transform="translate(49,67)"/>
<path d="M0,0 L1,0 L1,1 L0,1 Z " fill="#AAA9AA" transform="translate(37,67)"/>
<path d="M0,0 L1,0 L1,1 L0,1 Z " fill="#82B1D3" transform="translate(33,67)"/>
<path d="M0,0 L1,0 L1,1 L0,1 Z " fill="#787778" transform="translate(90,66)"/>
<path d="M0,0 L1,0 L1,1 L0,1 Z " fill="#838284" transform="translate(37,66)"/>
<path d="M0,0 L1,0 L1,1 L0,1 Z " fill="#B6D1E6" transform="translate(94,65)"/>
<path d="M0,0 L1,0 L1,1 L0,1 Z " fill="#D4D4D4" transform="translate(78,65)"/>
<path d="M0,0 L1,0 L1,1 L0,1 Z " fill="#A7C8E1" transform="translate(76,65)"/>
<path d="M0,0 L1,0 L1,1 L0,1 Z " fill="#B3CFE5" transform="translate(51,65)"/>
<path d="M0,0 L1,0 L1,1 L0,1 Z " fill="#CDCDCD" transform="translate(49,65)"/>
<path d="M0,0 L1,0 L1,1 L0,1 Z " fill="#ADCCE3" transform="translate(33,65)"/>
<path d="M0,0 L1,0 L1,1 L0,1 Z " fill="#A3A3A3" transform="translate(90,64)"/>
<path d="M0,0 L1,0 L1,1 L0,1 Z " fill="#434244" transform="translate(79,64)"/>
<path d="M0,0 L1,0 L1,1 L0,1 Z " fill="#F7F7F7" transform="translate(78,64)"/>
<path d="M0,0 L1,0 L1,1 L0,1 Z " fill="#F2F2F2" transform="translate(49,64)"/>
<path d="M0,0 L1,0 L1,1 L0,1 Z " fill="#ADACAD" transform="translate(37,64)"/>
<path d="M0,0 L1,0 L1,1 L0,1 Z " fill="#8FB9D8" transform="translate(94,63)"/>
<path d="M0,0 L1,0 L1,1 L0,1 Z " fill="#DCDCDC" transform="translate(90,63)"/>
<path d="M0,0 L1,0 L1,1 L0,1 Z " fill="#787778" transform="translate(79,63)"/>
<path d="M0,0 L1,0 L1,1 L0,1 Z " fill="#82B1D3" transform="translate(76,63)"/>
<path d="M0,0 L1,0 L1,1 L0,1 Z " fill="#D7E6F1" transform="translate(66,63)"/>
<path d="M0,0 L1,0 L1,1 L0,1 Z " fill="#D0E2EF" transform="translate(61,63)"/>
<path d="M0,0 L1,0 L1,1 L0,1 Z " fill="#8CB7D7" transform="translate(51,63)"/>
<path d="M0,0 L1,0 L1,1 L0,1 Z " fill="#706F70" transform="translate(48,63)"/>
<path d="M0,0 L1,0 L1,1 L0,1 Z " fill="#454446" transform="translate(38,63)"/>
<path d="M0,0 L1,0 L1,1 L0,1 Z " fill="#E3E3E3" transform="translate(37,63)"/>
<path d="M0,0 L1,0 L1,1 L0,1 Z " fill="#88B4D5" transform="translate(33,63)"/>
<path d="M0,0 L1,0 L1,1 L0,1 Z " fill="#5997C5" transform="translate(94,62)"/>
<path d="M0,0 L1,0 L1,1 L0,1 Z " fill="#9C9C9D" transform="translate(89,62)"/>
<path d="M0,0 L1,0 L1,1 L0,1 Z " fill="#4B4A4C" transform="translate(80,62)"/>
<path d="M0,0 L1,0 L1,1 L0,1 Z " fill="#E9E9E9" transform="translate(79,62)"/>
<path d="M0,0 L1,0 L1,1 L0,1 Z " fill="#FBFDFE" transform="translate(77,62)"/>
<path d="M0,0 L1,0 L1,1 L0,1 Z " fill="#5192C2" transform="translate(76,62)"/>
<path d="M0,0 L1,0 L1,1 L0,1 Z " fill="#70A6CD" transform="translate(66,62)"/>
<path d="M0,0 L1,0 L1,1 L0,1 Z " fill="#F1F6FA" transform="translate(65,62)"/>
<path d="M0,0 L1,0 L1,1 L0,1 Z " fill="#EFF5FA" transform="translate(62,62)"/>
<path d="M0,0 L1,0 L1,1 L0,1 Z " fill="#6BA3CB" transform="translate(61,62)"/>
<path d="M0,0 L1,0 L1,1 L0,1 Z " fill="#5796C4" transform="translate(51,62)"/>
<path d="M0,0 L1,0 L1,1 L0,1 Z " fill="#FEFFFF" transform="translate(50,62)"/>
<path d="M0,0 L1,0 L1,1 L0,1 Z " fill="#E3E3E3" transform="translate(48,62)"/>
<path d="M0,0 L1,0 L1,1 L0,1 Z " fill="#474648" transform="translate(47,62)"/>
<path d="M0,0 L1,0 L1,1 L0,1 Z " fill="#A6A6A6" transform="translate(38,62)"/>
<path d="M0,0 L1,0 L1,1 L0,1 Z " fill="#FDFEFE" transform="translate(34,62)"/>
<path d="M0,0 L1,0 L1,1 L0,1 Z " fill="#5494C3" transform="translate(33,62)"/>
<path d="M0,0 L1,0 L1,1 L0,1 Z " fill="#C7DCEC" transform="translate(93,61)"/>
<path d="M0,0 L1,0 L1,1 L0,1 Z " fill="#FAFAFA" transform="translate(89,61)"/>
<path d="M0,0 L1,0 L1,1 L0,1 Z " fill="#8D8D8E" transform="translate(88,61)"/>
<path d="M0,0 L1,0 L1,1 L0,1 Z " fill="#555456" transform="translate(81,61)"/>
<path d="M0,0 L1,0 L1,1 L0,1 Z " fill="#CECDCE" transform="translate(80,61)"/>
<path d="M0,0 L1,0 L1,1 L0,1 Z " fill="#B9D4E7" transform="translate(77,61)"/>
<path d="M0,0 L1,0 L1,1 L0,1 Z " fill="#5091C2" transform="translate(65,61)"/>
<path d="M0,0 L1,0 L1,1 L0,1 Z " fill="#78ABD0" transform="translate(63,61)"/>
<path d="M0,0 L1,0 L1,1 L0,1 Z " fill="#4E90C1" transform="translate(62,61)"/>
<path d="M0,0 L1,0 L1,1 L0,1 Z " fill="#C4DAEA" transform="translate(50,61)"/>
<path d="M0,0 L1,0 L1,1 L0,1 Z " fill="#C8C7C8" transform="translate(47,61)"/>
<path d="M0,0 L1,0 L1,1 L0,1 Z " fill="#515052" transform="translate(46,61)"/>
<path d="M0,0 L1,0 L1,1 L0,1 Z " fill="#959495" transform="translate(39,61)"/>
<path d="M0,0 L1,0 L1,1 L0,1 Z " fill="#FCFCFC" transform="translate(38,61)"/>
<path d="M0,0 L1,0 L1,1 L0,1 Z " fill="#BFD7E9" transform="translate(34,61)"/>
<path d="M0,0 L1,0 L1,1 L0,1 Z " fill="#659FC9" transform="translate(93,60)"/>
<path d="M0,0 L1,0 L1,1 L0,1 Z " fill="#FAFCFE" transform="translate(92,60)"/>
<path d="M0,0 L1,0 L1,1 L0,1 Z " fill="#CBCBCC" transform="translate(87,60)"/>
<path d="M0,0 L1,0 L1,1 L0,1 Z " fill="#807F81" transform="translate(86,60)"/>
<path d="M0,0 L1,0 L1,1 L0,1 Z " fill="#5A595B" transform="translate(85,60)"/>
<path d="M0,0 L1,0 L1,1 L0,1 Z " fill="#484749" transform="translate(84,60)"/>
<path d="M0,0 L1,0 L1,1 L0,1 Z " fill="#989798" transform="translate(82,60)"/>
<path d="M0,0 L1,0 L1,1 L0,1 Z " fill="#F3F3F3" transform="translate(81,60)"/>
<path d="M0,0 L1,0 L1,1 L0,1 Z " fill="#F6FAFC" transform="translate(78,60)"/>
<path d="M0,0 L1,0 L1,1 L0,1 Z " fill="#5C99C6" transform="translate(77,60)"/>
<path d="M0,0 L1,0 L1,1 L0,1 Z " fill="#639DC8" transform="translate(50,60)"/>
<path d="M0,0 L1,0 L1,1 L0,1 Z " fill="#FAFCFD" transform="translate(49,60)"/>
<path d="M0,0 L1,0 L1,1 L0,1 Z " fill="#EFEFEF" transform="translate(46,60)"/>
<path d="M0,0 L1,0 L1,1 L0,1 Z " fill="#949495" transform="translate(45,60)"/>
<path d="M0,0 L1,0 L1,1 L0,1 Z " fill="#6A696A" transform="translate(44,60)"/>
<path d="M0,0 L1,0 L1,1 L0,1 Z " fill="#474648" transform="translate(43,60)"/>
<path d="M0,0 L1,0 L1,1 L0,1 Z " fill="#828283" transform="translate(41,60)"/>
<path d="M0,0 L1,0 L1,1 L0,1 Z " fill="#D0D0D1" transform="translate(40,60)"/>
<path d="M0,0 L1,0 L1,1 L0,1 Z " fill="#F8FBFD" transform="translate(35,60)"/>
<path d="M0,0 L1,0 L1,1 L0,1 Z " fill="#609BC7" transform="translate(34,60)"/>
<path d="M0,0 L1,0 L1,1 L0,1 Z " fill="#8BB7D7" transform="translate(92,59)"/>
<path d="M0,0 L1,0 L1,1 L0,1 Z " fill="#FEFFFF" transform="translate(79,59)"/>
<path d="M0,0 L1,0 L1,1 L0,1 Z " fill="#7FAFD2" transform="translate(78,59)"/>
<path d="M0,0 L1,0 L1,1 L0,1 Z " fill="#88B4D5" transform="translate(49,59)"/>
<path d="M0,0 L1,0 L1,1 L0,1 Z " fill="#FEFEFE" transform="translate(43,59)"/>
<path d="M0,0 L1,0 L1,1 L0,1 Z " fill="#FFFFFF" transform="translate(36,59)"/>
<path d="M0,0 L1,0 L1,1 L0,1 Z " fill="#84B2D4" transform="translate(35,59)"/>
<path d="M0,0 L1,0 L1,1 L0,1 Z " fill="#8DB7D7" transform="translate(91,58)"/>
<path d="M0,0 L1,0 L1,1 L0,1 Z " fill="#FBFDFE" transform="translate(90,58)"/>
<path d="M0,0 L1,0 L1,1 L0,1 Z " fill="#F8FBFD" transform="translate(80,58)"/>
<path d="M0,0 L1,0 L1,1 L0,1 Z " fill="#82B1D4" transform="translate(79,58)"/>
<path d="M0,0 L1,0 L1,1 L0,1 Z " fill="#8AB6D6" transform="translate(48,58)"/>
<path d="M0,0 L1,0 L1,1 L0,1 Z " fill="#FAFCFD" transform="translate(47,58)"/>
<path d="M0,0 L1,0 L1,1 L0,1 Z " fill="#F9FBFD" transform="translate(37,58)"/>
<path d="M0,0 L1,0 L1,1 L0,1 Z " fill="#86B3D5" transform="translate(36,58)"/>
<path d="M0,0 L1,0 L1,1 L0,1 Z " fill="#68A0CA" transform="translate(90,57)"/>
<path d="M0,0 L1,0 L1,1 L0,1 Z " fill="#CBDFED" transform="translate(89,57)"/>
<path d="M0,0 L1,0 L1,1 L0,1 Z " fill="#C4DAEB" transform="translate(81,57)"/>
<path d="M0,0 L1,0 L1,1 L0,1 Z " fill="#629DC8" transform="translate(80,57)"/>
<path d="M0,0 L1,0 L1,1 L0,1 Z " fill="#669FC9" transform="translate(47,57)"/>
<path d="M0,0 L1,0 L1,1 L0,1 Z " fill="#C9DDEC" transform="translate(46,57)"/>
<path d="M0,0 L1,0 L1,1 L0,1 Z " fill="#C6DCEB" transform="translate(38,57)"/>
<path d="M0,0 L1,0 L1,1 L0,1 Z " fill="#649EC9" transform="translate(37,57)"/>
<path d="M0,0 L1,0 L1,1 L0,1 Z " fill="#5E9AC7" transform="translate(88,56)"/>
<path d="M0,0 L1,0 L1,1 L0,1 Z " fill="#95BDDA" transform="translate(87,56)"/>
<path d="M0,0 L1,0 L1,1 L0,1 Z " fill="#BCD5E8" transform="translate(85,56)"/>
<path d="M0,0 L1,0 L1,1 L0,1 Z " fill="#92BBD9" transform="translate(83,56)"/>
<path d="M0,0 L1,0 L1,1 L0,1 Z " fill="#5B98C6" transform="translate(82,56)"/>
<path d="M0,0 L1,0 L1,1 L0,1 Z " fill="#5D9AC6" transform="translate(45,56)"/>
<path d="M0,0 L1,0 L1,1 L0,1 Z " fill="#94BCDA" transform="translate(44,56)"/>
<path d="M0,0 L1,0 L1,1 L0,1 Z " fill="#BCD5E8" transform="translate(42,56)"/>
<path d="M0,0 L1,0 L1,1 L0,1 Z " fill="#93BCD9" transform="translate(40,56)"/>
<path d="M0,0 L1,0 L1,1 L0,1 Z " fill="#5B99C6" transform="translate(39,56)"/>
<path d="M0,0 L1,0 L1,1 L0,1 Z " fill="#394C68" transform="translate(105,55)"/>
<path d="M0,0 L1,0 L1,1 L0,1 Z " fill="#384862" transform="translate(22,55)"/>
<path d="M0,0 L1,0 L1,1 L0,1 Z " fill="#4379A6" transform="translate(105,54)"/>
<path d="M0,0 L1,0 L1,1 L0,1 Z " fill="#4278A3" transform="translate(22,54)"/>
<path d="M0,0 L1,0 L1,1 L0,1 Z " fill="#353D53" transform="translate(21,54)"/>
<path d="M0,0 L1,0 L1,1 L0,1 Z " fill="#3E6285" transform="translate(106,53)"/>
<path d="M0,0 L1,0 L1,1 L0,1 Z " fill="#3E6387" transform="translate(21,53)"/>
<path d="M0,0 L1,0 L1,1 L0,1 Z " fill="#384C67" transform="translate(107,52)"/>
<path d="M0,0 L1,0 L1,1 L0,1 Z " fill="#468ABC" transform="translate(106,52)"/>
<path d="M0,0 L1,0 L1,1 L0,1 Z " fill="#468ABD" transform="translate(21,52)"/>
<path d="M0,0 L1,0 L1,1 L0,1 Z " fill="#394F6B" transform="translate(20,52)"/>
<path d="M0,0 L1,0 L1,1 L0,1 Z " fill="#363F55" transform="translate(108,51)"/>
<path d="M0,0 L1,0 L1,1 L0,1 Z " fill="#447FAC" transform="translate(107,51)"/>
<path d="M0,0 L1,0 L1,1 L0,1 Z " fill="#4483B2" transform="translate(20,51)"/>
<path d="M0,0 L1,0 L1,1 L0,1 Z " fill="#364258" transform="translate(19,51)"/>
<path d="M0,0 L1,0 L1,1 L0,1 Z " fill="#3F698E" transform="translate(108,50)"/>
<path d="M0,0 L1,0 L1,1 L0,1 Z " fill="#406D95" transform="translate(19,50)"/>
<path d="M0,0 L1,0 L1,1 L0,1 Z " fill="#3A516E" transform="translate(109,49)"/>
<path d="M0,0 L1,0 L1,1 L0,1 Z " fill="#3A526F" transform="translate(18,49)"/>
<path d="M0,0 L1,0 L1,1 L0,1 Z " fill="#364158" transform="translate(110,48)"/>
<path d="M0,0 L1,0 L1,1 L0,1 Z " fill="#4482B1" transform="translate(109,48)"/>
<path d="M0,0 L1,0 L1,1 L0,1 Z " fill="#4482B1" transform="translate(18,48)"/>
<path d="M0,0 L1,0 L1,1 L0,1 Z " fill="#364157" transform="translate(17,48)"/>
<path d="M0,0 L1,0 L1,1 L0,1 Z " fill="#3F6B91" transform="translate(110,47)"/>
<path d="M0,0 L1,0 L1,1 L0,1 Z " fill="#3E668C" transform="translate(17,47)"/>
<path d="M0,0 L1,0 L1,1 L0,1 Z " fill="#3A5370" transform="translate(110,46)"/>
<path d="M0,0 L1,0 L1,1 L0,1 Z " fill="#394F6B" transform="translate(17,46)"/>
<path d="M0,0 L1,0 L1,1 L0,1 Z " fill="#3F6C92" transform="translate(109,45)"/>
<path d="M0,0 L1,0 L1,1 L0,1 Z " fill="#3E688C" transform="translate(18,45)"/>
<path d="M0,0 L1,0 L1,1 L0,1 Z " fill="#364057" transform="translate(109,44)"/>
<path d="M0,0 L1,0 L1,1 L0,1 Z " fill="#4481B1" transform="translate(108,44)"/>
<path d="M0,0 L1,0 L1,1 L0,1 Z " fill="#447FAC" transform="translate(19,44)"/>
<path d="M0,0 L1,0 L1,1 L0,1 Z " fill="#363F54" transform="translate(18,44)"/>
<path d="M0,0 L1,0 L1,1 L0,1 Z " fill="#3A506D" transform="translate(108,43)"/>
<path d="M0,0 L1,0 L1,1 L0,1 Z " fill="#394C68" transform="translate(19,43)"/>
<path d="M0,0 L1,0 L1,1 L0,1 Z " fill="#3F698F" transform="translate(107,42)"/>
<path d="M0,0 L1,0 L1,1 L0,1 Z " fill="#3E658A" transform="translate(20,42)"/>
<path d="M0,0 L1,0 L1,1 L0,1 Z " fill="#364056" transform="translate(107,41)"/>
<path d="M0,0 L1,0 L1,1 L0,1 Z " fill="#437DAB" transform="translate(106,41)"/>
<path d="M0,0 L1,0 L1,1 L0,1 Z " fill="#468ABD" transform="translate(94,41)"/>
<path d="M0,0 L1,0 L1,1 L0,1 Z " fill="#468ABD" transform="translate(33,41)"/>
<path d="M0,0 L1,0 L1,1 L0,1 Z " fill="#427AA6" transform="translate(21,41)"/>
<path d="M0,0 L1,0 L1,1 L0,1 Z " fill="#353E54" transform="translate(20,41)"/>
<path d="M0,0 L1,0 L1,1 L0,1 Z " fill="#37465E" transform="translate(106,40)"/>
<path d="M0,0 L1,0 L1,1 L0,1 Z " fill="#4483B3" transform="translate(105,40)"/>
<path d="M0,0 L1,0 L1,1 L0,1 Z " fill="#4279A5" transform="translate(95,40)"/>
<path d="M0,0 L1,0 L1,1 L0,1 Z " fill="#3D5E80" transform="translate(93,40)"/>
<path d="M0,0 L1,0 L1,1 L0,1 Z " fill="#468ABD" transform="translate(92,40)"/>
<path d="M0,0 L1,0 L1,1 L0,1 Z " fill="#4689BC" transform="translate(35,40)"/>
<path d="M0,0 L1,0 L1,1 L0,1 Z " fill="#3C5A7B" transform="translate(34,40)"/>
<path d="M0,0 L1,0 L1,1 L0,1 Z " fill="#384B66" transform="translate(33,40)"/>
<path d="M0,0 L1,0 L1,1 L0,1 Z " fill="#437BA8" transform="translate(32,40)"/>
<path d="M0,0 L1,0 L1,1 L0,1 Z " fill="#4481B0" transform="translate(22,40)"/>
<path d="M0,0 L1,0 L1,1 L0,1 Z " fill="#37435B" transform="translate(21,40)"/>
<path d="M0,0 L1,0 L1,1 L0,1 Z " fill="#384B66" transform="translate(105,39)"/>
<path d="M0,0 L1,0 L1,1 L0,1 Z " fill="#4588BA" transform="translate(104,39)"/>
<path d="M0,0 L1,0 L1,1 L0,1 Z " fill="#4587B8" transform="translate(97,39)"/>
<path d="M0,0 L1,0 L1,1 L0,1 Z " fill="#3C5C7E" transform="translate(96,39)"/>
<path d="M0,0 L1,0 L1,1 L0,1 Z " fill="#353D52" transform="translate(95,39)"/>
<path d="M0,0 L1,0 L1,1 L0,1 Z " fill="#3A516E" transform="translate(92,39)"/>
<path d="M0,0 L1,0 L1,1 L0,1 Z " fill="#4585B6" transform="translate(91,39)"/>
<path d="M0,0 L1,0 L1,1 L0,1 Z " fill="#4584B4" transform="translate(36,39)"/>
<path d="M0,0 L1,0 L1,1 L0,1 Z " fill="#394F6B" transform="translate(35,39)"/>
<path d="M0,0 L1,0 L1,1 L0,1 Z " fill="#353D53" transform="translate(32,39)"/>
<path d="M0,0 L1,0 L1,1 L0,1 Z " fill="#3D5F81" transform="translate(31,39)"/>
<path d="M0,0 L1,0 L1,1 L0,1 Z " fill="#4588BA" transform="translate(30,39)"/>
<path d="M0,0 L1,0 L1,1 L0,1 Z " fill="#4586B7" transform="translate(23,39)"/>
<path d="M0,0 L1,0 L1,1 L0,1 Z " fill="#384963" transform="translate(22,39)"/>
<path d="M0,0 L1,0 L1,1 L0,1 Z " fill="#3A5371" transform="translate(104,38)"/>
<path d="M0,0 L1,0 L1,1 L0,1 Z " fill="#468ABD" transform="translate(103,38)"/>
<path d="M0,0 L1,0 L1,1 L0,1 Z " fill="#406E96" transform="translate(98,38)"/>
<path d="M0,0 L1,0 L1,1 L0,1 Z " fill="#36445C" transform="translate(97,38)"/>
<path d="M0,0 L1,0 L1,1 L0,1 Z " fill="#374761" transform="translate(91,38)"/>
<path d="M0,0 L1,0 L1,1 L0,1 Z " fill="#447EAC" transform="translate(90,38)"/>
<path d="M0,0 L1,0 L1,1 L0,1 Z " fill="#437CA9" transform="translate(37,38)"/>
<path d="M0,0 L1,0 L1,1 L0,1 Z " fill="#37465E" transform="translate(36,38)"/>
<path d="M0,0 L1,0 L1,1 L0,1 Z " fill="#38455E" transform="translate(30,38)"/>
<path d="M0,0 L1,0 L1,1 L0,1 Z " fill="#407098" transform="translate(29,38)"/>
<path d="M0,0 L1,0 L1,1 L0,1 Z " fill="#468ABD" transform="translate(28,38)"/>
<path d="M0,0 L1,0 L1,1 L0,1 Z " fill="#4689BC" transform="translate(24,38)"/>
<path d="M0,0 L1,0 L1,1 L0,1 Z " fill="#39506C" transform="translate(23,38)"/>
<path d="M0,0 L1,0 L1,1 L0,1 Z " fill="#3C5C7D" transform="translate(103,37)"/>
<path d="M0,0 L1,0 L1,1 L0,1 Z " fill="#40709A" transform="translate(100,37)"/>
<path d="M0,0 L1,0 L1,1 L0,1 Z " fill="#384862" transform="translate(99,37)"/>
<path d="M0,0 L1,0 L1,1 L0,1 Z " fill="#364057" transform="translate(90,37)"/>
<path d="M0,0 L1,0 L1,1 L0,1 Z " fill="#406E96" transform="translate(89,37)"/>
<path d="M0,0 L1,0 L1,1 L0,1 Z " fill="#3F6C92" transform="translate(38,37)"/>
<path d="M0,0 L1,0 L1,1 L0,1 Z " fill="#363F56" transform="translate(37,37)"/>
<path d="M0,0 L1,0 L1,1 L0,1 Z " fill="#384A64" transform="translate(28,37)"/>
<path d="M0,0 L1,0 L1,1 L0,1 Z " fill="#41739C" transform="translate(27,37)"/>
<path d="M0,0 L1,0 L1,1 L0,1 Z " fill="#478CBF" transform="translate(25,37)"/>
<path d="M0,0 L1,0 L1,1 L0,1 Z " fill="#3B5978" transform="translate(24,37)"/>
<path d="M0,0 L1,0 L1,1 L0,1 Z " fill="#3C5B7D" transform="translate(102,36)"/>
<path d="M0,0 L1,0 L1,1 L0,1 Z " fill="#394B66" transform="translate(101,36)"/>
<path d="M0,0 L1,0 L1,1 L0,1 Z " fill="#3A526F" transform="translate(88,36)"/>
<path d="M0,0 L1,0 L1,1 L0,1 Z " fill="#4481B0" transform="translate(87,36)"/>
<path d="M0,0 L1,0 L1,1 L0,1 Z " fill="#4480AE" transform="translate(40,36)"/>
<path d="M0,0 L1,0 L1,1 L0,1 Z " fill="#39506C" transform="translate(39,36)"/>
<path d="M0,0 L1,0 L1,1 L0,1 Z " fill="#3B5B7B" transform="translate(25,36)"/>
<path d="M0,0 L1,0 L1,1 L0,1 Z " fill="#364056" transform="translate(87,35)"/>
<path d="M0,0 L1,0 L1,1 L0,1 Z " fill="#3F688D" transform="translate(86,35)"/>
<path d="M0,0 L1,0 L1,1 L0,1 Z " fill="#468ABD" transform="translate(85,35)"/>
<path d="M0,0 L1,0 L1,1 L0,1 Z " fill="#3E668A" transform="translate(41,35)"/>
<path d="M0,0 L1,0 L1,1 L0,1 Z " fill="#363F55" transform="translate(40,35)"/>
<path d="M0,0 L1,0 L1,1 L0,1 Z " fill="#3B5978" transform="translate(85,34)"/>
<path d="M0,0 L1,0 L1,1 L0,1 Z " fill="#3B5573" transform="translate(42,34)"/>
<path d="M0,0 L1,0 L1,1 L0,1 Z " fill="#3D6184" transform="translate(85,32)"/>
<path d="M0,0 L1,0 L1,1 L0,1 Z " fill="#3C5E7F" transform="translate(42,32)"/>
<path d="M0,0 L1,0 L1,1 L0,1 Z " fill="#41729C" transform="translate(85,30)"/>
<path d="M0,0 L1,0 L1,1 L0,1 Z " fill="#406E96" transform="translate(42,30)"/>
<path d="M0,0 L1,0 L1,1 L0,1 Z " fill="#4587B9" transform="translate(68,29)"/>
<path d="M0,0 L1,0 L1,1 L0,1 Z " fill="#4688BA" transform="translate(59,29)"/>
<path d="M0,0 L1,0 L1,1 L0,1 Z " fill="#437FAE" transform="translate(85,28)"/>
<path d="M0,0 L1,0 L1,1 L0,1 Z " fill="#4378A4" transform="translate(69,28)"/>
<path d="M0,0 L1,0 L1,1 L0,1 Z " fill="#353E55" transform="translate(67,28)"/>
<path d="M0,0 L1,0 L1,1 L0,1 Z " fill="#384A64" transform="translate(65,28)"/>
<path d="M0,0 L1,0 L1,1 L0,1 Z " fill="#36445C" transform="translate(61,28)"/>
<path d="M0,0 L1,0 L1,1 L0,1 Z " fill="#353E55" transform="translate(60,28)"/>
<path d="M0,0 L1,0 L1,1 L0,1 Z " fill="#437CA9" transform="translate(58,28)"/>
<path d="M0,0 L1,0 L1,1 L0,1 Z " fill="#437BA7" transform="translate(42,28)"/>
<path d="M0,0 L1,0 L1,1 L0,1 Z " fill="#4582B3" transform="translate(85,27)"/>
<path d="M0,0 L1,0 L1,1 L0,1 Z " fill="#3A5270" transform="translate(69,27)"/>
<path d="M0,0 L1,0 L1,1 L0,1 Z " fill="#3B5676" transform="translate(58,27)"/>
<path d="M0,0 L1,0 L1,1 L0,1 Z " fill="#437FAD" transform="translate(42,27)"/>
<path d="M0,0 L1,0 L1,1 L0,1 Z " fill="#4586B8" transform="translate(85,26)"/>
<path d="M0,0 L1,0 L1,1 L0,1 Z " fill="#437CA9" transform="translate(70,26)"/>
<path d="M0,0 L1,0 L1,1 L0,1 Z " fill="#353D53" transform="translate(58,26)"/>
<path d="M0,0 L1,0 L1,1 L0,1 Z " fill="#447FAD" transform="translate(57,26)"/>
<path d="M0,0 L1,0 L1,1 L0,1 Z " fill="#4483B2" transform="translate(42,26)"/>
<path d="M0,0 L1,0 L1,1 L0,1 Z " fill="#3B5676" transform="translate(70,25)"/>
<path d="M0,0 L1,0 L1,1 L0,1 Z " fill="#3C5A7B" transform="translate(57,25)"/>
<path d="M0,0 L1,0 L1,1 L0,1 Z " fill="#353E54" transform="translate(86,24)"/>
<path d="M0,0 L1,0 L1,1 L0,1 Z " fill="#4482B1" transform="translate(85,24)"/>
<path d="M0,0 L1,0 L1,1 L0,1 Z " fill="#447EAC" transform="translate(71,24)"/>
<path d="M0,0 L1,0 L1,1 L0,1 Z " fill="#353D53" transform="translate(70,24)"/>
<path d="M0,0 L1,0 L1,1 L0,1 Z " fill="#353E54" transform="translate(57,24)"/>
<path d="M0,0 L1,0 L1,1 L0,1 Z " fill="#4481B1" transform="translate(56,24)"/>
<path d="M0,0 L1,0 L1,1 L0,1 Z " fill="#478CBF" transform="translate(43,24)"/>
<path d="M0,0 L1,0 L1,1 L0,1 Z " fill="#437FAE" transform="translate(42,24)"/>
<path d="M0,0 L1,0 L1,1 L0,1 Z " fill="#353D53" transform="translate(85,23)"/>
<path d="M0,0 L1,0 L1,1 L0,1 Z " fill="#3A5473" transform="translate(84,23)"/>
<path d="M0,0 L1,0 L1,1 L0,1 Z " fill="#41749F" transform="translate(83,23)"/>
<path d="M0,0 L1,0 L1,1 L0,1 Z " fill="#468ABD" transform="translate(82,23)"/>
<path d="M0,0 L1,0 L1,1 L0,1 Z " fill="#3A5471" transform="translate(71,23)"/>
<path d="M0,0 L1,0 L1,1 L0,1 Z " fill="#3B5877" transform="translate(56,23)"/>
<path d="M0,0 L1,0 L1,1 L0,1 Z " fill="#41739C" transform="translate(44,23)"/>
<path d="M0,0 L1,0 L1,1 L0,1 Z " fill="#3A5370" transform="translate(43,23)"/>
<path d="M0,0 L1,0 L1,1 L0,1 Z " fill="#3E668A" transform="translate(81,22)"/>
<path d="M0,0 L1,0 L1,1 L0,1 Z " fill="#4583B5" transform="translate(80,22)"/>
<path d="M0,0 L1,0 L1,1 L0,1 Z " fill="#4175A0" transform="translate(72,22)"/>
<path d="M0,0 L1,0 L1,1 L0,1 Z " fill="#437AA7" transform="translate(55,22)"/>
<path d="M0,0 L1,0 L1,1 L0,1 Z " fill="#3E6387" transform="translate(46,22)"/>
<path d="M0,0 L1,0 L1,1 L0,1 Z " fill="#37445D" transform="translate(45,22)"/>
<path d="M0,0 L1,0 L1,1 L0,1 Z " fill="#353E54" transform="translate(80,21)"/>
<path d="M0,0 L1,0 L1,1 L0,1 Z " fill="#3F688D" transform="translate(78,21)"/>
<path d="M0,0 L1,0 L1,1 L0,1 Z " fill="#447EAC" transform="translate(77,21)"/>
<path d="M0,0 L1,0 L1,1 L0,1 Z " fill="#468ABD" transform="translate(73,21)"/>
<path d="M0,0 L1,0 L1,1 L0,1 Z " fill="#384B65" transform="translate(72,21)"/>
<path d="M0,0 L1,0 L1,1 L0,1 Z " fill="#394F6B" transform="translate(55,21)"/>
<path d="M0,0 L1,0 L1,1 L0,1 Z " fill="#468BBE" transform="translate(51,21)"/>
<path d="M0,0 L1,0 L1,1 L0,1 Z " fill="#3E668C" transform="translate(49,21)"/>
<path d="M0,0 L1,0 L1,1 L0,1 Z " fill="#3A506D" transform="translate(48,21)"/>
<path d="M0,0 L1,0 L1,1 L0,1 Z " fill="#363E53" transform="translate(47,21)"/>
<path d="M0,0 L1,0 L1,1 L0,1 Z " fill="#37455D" transform="translate(76,20)"/>
<path d="M0,0 L1,0 L1,1 L0,1 Z " fill="#3C5B7B" transform="translate(75,20)"/>
<path d="M0,0 L1,0 L1,1 L0,1 Z " fill="#3F688D" transform="translate(73,20)"/>
<path d="M0,0 L1,0 L1,1 L0,1 Z " fill="#3F6C92" transform="translate(54,20)"/>
<path d="M0,0 L1,0 L1,1 L0,1 Z " fill="#3C5979" transform="translate(52,20)"/>
<path d="M0,0 L1,0 L1,1 L0,1 Z " fill="#36445C" transform="translate(51,20)"/>
<path d="M0,0 L1,0 L1,1 L0,1 Z " fill="#202531" opacity="0.8392157" transform="translate(127,14)"/>
<path d="M0,0 L1,0 L1,1 L0,1 Z " fill="#32384D" transform="translate(123,14)"/>
<path d="M0,0 L1,0 L1,1 L0,1 Z " fill="#32394D" transform="translate(4,14)"/>
<path d="M0,0 L1,0 L1,1 L0,1 Z " fill="#212431" opacity="0.8509804" transform="translate(0,14)"/>
<path d="M0,0 L1,0 L1,1 L0,1 Z " fill="#1F2531" opacity="0.5686275" transform="translate(127,12)"/>
<path d="M0,0 L1,0 L1,1 L0,1 Z " fill="#292E3E" transform="translate(123,12)"/>
<path d="M0,0 L1,0 L1,1 L0,1 Z " fill="#292E3F" transform="translate(4,12)"/>
<path d="M0,0 L1,0 L1,1 L0,1 Z " fill="#202432" opacity="0.5803922" transform="translate(0,12)"/>
<path d="M0,0 L1,0 L1,1 L0,1 Z " fill="#222635" transform="translate(123,11)"/>
<path d="M0,0 L1,0 L1,1 L0,1 Z " fill="#232735" transform="translate(4,11)"/>
<path d="M0,0 L1,0 L1,1 L0,1 Z " fill="#202431" opacity="0.015686275" transform="translate(127,10)"/>
<path d="M0,0 L1,0 L1,1 L0,1 Z " fill="#202431" opacity="0.93333334" transform="translate(126,10)"/>
<path d="M0,0 L1,0 L1,1 L0,1 Z " fill="#2D3345" transform="translate(122,10)"/>
<path d="M0,0 L1,0 L1,1 L0,1 Z " fill="#2E3345" transform="translate(5,10)"/>
<path d="M0,0 L1,0 L1,1 L0,1 Z " fill="#202531" opacity="0.9490196" transform="translate(1,10)"/>
<path d="M0,0 L1,0 L1,1 L0,1 Z " fill="#202531" opacity="0.023529412" transform="translate(0,10)"/>
<path d="M0,0 L1,0 L1,1 L0,1 Z " fill="#222734" transform="translate(122,9)"/>
<path d="M0,0 L1,0 L1,1 L0,1 Z " fill="#343B50" transform="translate(121,9)"/>
<path d="M0,0 L1,0 L1,1 L0,1 Z " fill="#343B50" transform="translate(6,9)"/>
<path d="M0,0 L1,0 L1,1 L0,1 Z " fill="#232735" transform="translate(5,9)"/>
<path d="M0,0 L1,0 L1,1 L0,1 Z " fill="#17222E" opacity="0.08627451" transform="translate(126,8)"/>
<path d="M0,0 L1,0 L1,1 L0,1 Z " fill="#202531" opacity="0.9490196" transform="translate(125,8)"/>
<path d="M0,0 L1,0 L1,1 L0,1 Z " fill="#262C3B" transform="translate(121,8)"/>
<path d="M0,0 L1,0 L1,1 L0,1 Z " fill="#272D3B" transform="translate(6,8)"/>
<path d="M0,0 L1,0 L1,1 L0,1 Z " fill="#202432" opacity="0.9607843" transform="translate(2,8)"/>
<path d="M0,0 L1,0 L1,1 L0,1 Z " fill="#1D1D31" opacity="0.101960786" transform="translate(1,8)"/>
<path d="M0,0 L1,0 L1,1 L0,1 Z " fill="#202431" opacity="0.49019608" transform="translate(125,7)"/>
<path d="M0,0 L1,0 L1,1 L0,1 Z " fill="#292F3F" transform="translate(120,7)"/>
<path d="M0,0 L1,0 L1,1 L0,1 Z " fill="#2A2F3F" transform="translate(7,7)"/>
<path d="M0,0 L1,0 L1,1 L0,1 Z " fill="#202431" opacity="0.023529412" transform="translate(125,6)"/>
<path d="M0,0 L1,0 L1,1 L0,1 Z " fill="#262C3B" transform="translate(119,6)"/>
<path d="M0,0 L1,0 L1,1 L0,1 Z " fill="#343B50" transform="translate(118,6)"/>
<path d="M0,0 L1,0 L1,1 L0,1 Z " fill="#343B50" transform="translate(9,6)"/>
<path d="M0,0 L1,0 L1,1 L0,1 Z " fill="#272D3B" transform="translate(8,6)"/>
<path d="M0,0 L1,0 L1,1 L0,1 Z " fill="#212431" opacity="0.7882353" transform="translate(3,6)"/>
<path d="M0,0 L1,0 L1,1 L0,1 Z " fill="#212431" opacity="0.03137255" transform="translate(2,6)"/>
<path d="M0,0 L1,0 L1,1 L0,1 Z " fill="#21212C" opacity="0.09019608" transform="translate(124,5)"/>
<path d="M0,0 L1,0 L1,1 L0,1 Z " fill="#202431" opacity="0.8862745" transform="translate(123,5)"/>
<path d="M0,0 L1,0 L1,1 L0,1 Z " fill="#232635" transform="translate(118,5)"/>
<path d="M0,0 L1,0 L1,1 L0,1 Z " fill="#2D3345" transform="translate(117,5)"/>
<path d="M0,0 L1,0 L1,1 L0,1 Z " fill="#2D3345" transform="translate(10,5)"/>
<path d="M0,0 L1,0 L1,1 L0,1 Z " fill="#232735" transform="translate(9,5)"/>
<path d="M0,0 L1,0 L1,1 L0,1 Z " fill="#1D1D31" opacity="0.101960786" transform="translate(3,5)"/>
<path d="M0,0 L1,0 L1,1 L0,1 Z " fill="#1C222D" opacity="0.1764706" transform="translate(123,4)"/>
<path d="M0,0 L1,0 L1,1 L0,1 Z " fill="#292E3E" transform="translate(115,4)"/>
<path d="M0,0 L1,0 L1,1 L0,1 Z " fill="#32394D" transform="translate(113,4)"/>
<path d="M0,0 L1,0 L1,1 L0,1 Z " fill="#343B50" transform="translate(112,4)"/>
<path d="M0,0 L1,0 L1,1 L0,1 Z " fill="#32394D" transform="translate(14,4)"/>
<path d="M0,0 L1,0 L1,1 L0,1 Z " fill="#292F3F" transform="translate(12,4)"/>
<path d="M0,0 L1,0 L1,1 L0,1 Z " fill="#232735" transform="translate(11,4)"/>
<path d="M0,0 L1,0 L1,1 L0,1 Z " fill="#202530" opacity="0.1882353" transform="translate(4,4)"/>
<path d="M0,0 L1,0 L1,1 L0,1 Z " fill="#20202A" opacity="0.09411765" transform="translate(122,3)"/>
<path d="M0,0 L1,0 L1,1 L0,1 Z " fill="#202431" opacity="0.7764706" transform="translate(121,3)"/>
<path d="M0,0 L1,0 L1,1 L0,1 Z " fill="#1D1D31" opacity="0.101960786" transform="translate(5,3)"/>
<path d="M0,0 L1,0 L1,1 L0,1 Z " fill="#1F2331" opacity="0.02745098" transform="translate(121,2)"/>
<path d="M0,0 L1,0 L1,1 L0,1 Z " fill="#1F2331" opacity="0.5058824" transform="translate(120,2)"/>
<path d="M0,0 L1,0 L1,1 L0,1 Z " fill="#202431" opacity="0.9647059" transform="translate(8,2)"/>
<path d="M0,0 L1,0 L1,1 L0,1 Z " fill="#202430" opacity="0.03137255" transform="translate(6,2)"/>
<path d="M0,0 L1,0 L1,1 L0,1 Z " fill="#20202A" opacity="0.09411765" transform="translate(119,1)"/>
<path d="M0,0 L1,0 L1,1 L0,1 Z " fill="#202331" opacity="0.5921569" transform="translate(118,1)"/>
<path d="M0,0 L1,0 L1,1 L0,1 Z " fill="#202531" opacity="0.9490196" transform="translate(117,1)"/>
<path d="M0,0 L1,0 L1,1 L0,1 Z " fill="#202431" opacity="0.9529412" transform="translate(10,1)"/>
<path d="M0,0 L1,0 L1,1 L0,1 Z " fill="#1C252F" opacity="0.105882354" transform="translate(8,1)"/>
<path d="M0,0 L1,0 L1,1 L0,1 Z " fill="#202432" opacity="0.2784314" transform="translate(116,0)"/>
<path d="M0,0 L1,0 L1,1 L0,1 Z " fill="#212430" opacity="0.5764706" transform="translate(115,0)"/>
<path d="M0,0 L1,0 L1,1 L0,1 Z " fill="#212431" opacity="0.8509804" transform="translate(113,0)"/>
<path d="M0,0 L1,0 L1,1 L0,1 Z " fill="#202431" opacity="0.9529412" transform="translate(112,0)"/>
<path d="M0,0 L1,0 L1,1 L0,1 Z " fill="#212431" opacity="0.8509804" transform="translate(14,0)"/>
<path d="M0,0 L1,0 L1,1 L0,1 Z " fill="#202432" opacity="0.5803922" transform="translate(12,0)"/>
<path d="M0,0 L1,0 L1,1 L0,1 Z " fill="#202331" opacity="0.02745098" transform="translate(10,0)"/>
</svg>
